  0
SECTION
  2
HEADER
  9
$ACADVER
  1
AC1014
  9
$HANDSEED
  5
FFFF
  9
$MEASUREMENT
 70
     1
  0
ENDSEC
  0
SECTION
  2
TABLES
  0
TABLE
  2
VPORT
  5
8
330
0
100
AcDbSymbolTable
 70
     4
  0
VPORT
  5
2E
330
8
100
AcDbSymbolTableRecord
100
AcDbViewportTableRecord
  2
*ACTIVE
 70
     0
 10
0.0
 20
0.0
 11
1.0
 21
1.0
 12
210.0
 22
148.5
 13
0.0
 23
0.0
 14
10.0
 24
10.0
 15
10.0
 25
10.0
 16
0.0
 26
0.0
 36
1.0
 17
0.0
 27
0.0
 37
0.0
 40
341.0
 41
1.24
 42
50.0
 43
0.0
 44
0.0
 50
0.0
 51
0.0
 71
     0
 72
   100
 73
     1
 74
     3
 75
     0
 76
     0
 77
     0
 78
     0
  0
ENDTAB
  0
TABLE
  2
LTYPE
  5
5
330
0
100
AcDbSymbolTable
 70
     1
  0
LTYPE
  5
14
330
5
100
AcDbSymbolTableRecord
100
AcDbLinetypeTableRecord
  2
BYBLOCK
 70
     0
  3

 72
    65
 73
     0
 40
0.0
  0
LTYPE
  5
15
330
5
100
AcDbSymbolTableRecord
100
AcDbLinetypeTableRecord
  2
BYLAYER
 70
     0
  3

 72
    65
 73
     0
 40
0.0
  0
LTYPE
  5
16
330
5
100
AcDbSymbolTableRecord
100
AcDbLinetypeTableRecord
  2
CONTINUOUS
 70
     0
  3
Solid line
 72
    65
 73
     0
 40
0.0
  0
ENDTAB
  0
TABLE
  2
LAYER
  5
2
100
AcDbSymbolTable
 70
12
  0
LAYER
  5
50
100
AcDbSymbolTableRecord
100
AcDbLayerTableRecord
  2
0
 70
0
  6
CONTINUOUS
  0
LAYER
  5
51
100
AcDbSymbolTableRecord
100
AcDbLayerTableRecord
  2
Centerline
 70
0
  6
CONTINUOUS
  0
LAYER
  5
52
100
AcDbSymbolTableRecord
100
AcDbLayerTableRecord
  2
Waterline1
 70
0
  6
CONTINUOUS
  0
LAYER
  5
53
100
AcDbSymbolTableRecord
100
AcDbLayerTableRecord
  2
Waterline2
 70
0
  6
CONTINUOUS
  0
LAYER
  5
54
100
AcDbSymbolTableRecord
100
AcDbLayerTableRecord
  2
Waterline3
 70
0
  6
CONTINUOUS
  0
LAYER
  5
55
100
AcDbSymbolTableRecord
100
AcDbLayerTableRecord
  2
Waterline4
 70
0
  6
CONTINUOUS
  0
LAYER
  5
56
100
AcDbSymbolTableRecord
100
AcDbLayerTableRecord
  2
Waterline5
 70
0
  6
CONTINUOUS
  0
LAYER
  5
57
100
AcDbSymbolTableRecord
100
AcDbLayerTableRecord
  2
Waterline6
 70
0
  6
CONTINUOUS
  0
LAYER
  5
58
100
AcDbSymbolTableRecord
100
AcDbLayerTableRecord
  2
Waterline7
 70
0
  6
CONTINUOUS
  0
LAYER
  5
59
100
AcDbSymbolTableRecord
100
AcDbLayerTableRecord
  2
Waterline8
 70
0
  6
CONTINUOUS
  0
LAYER
  5
5a
100
AcDbSymbolTableRecord
100
AcDbLayerTableRecord
  2
Waterline9
 70
0
  6
CONTINUOUS
  0
LAYER
  5
5b
100
AcDbSymbolTableRecord
100
AcDbLayerTableRecord
  2
Waterline10
 70
0
  6
CONTINUOUS
  0
ENDTAB
  0
TABLE
  2
STYLE
  5
3
330
0
100
AcDbSymbolTable
 70
     1
  0
STYLE
  5
11
330
3
100
AcDbSymbolTableRecord
100
AcDbTextStyleTableRecord
  2
STANDARD
 70
     0
 40
0.0
 41
1.0
 50
0.0
 71
     0
 42
2.5
  3
txt
  4

  0
ENDTAB
  0
TABLE
  2
VIEW
  5
6
330
0
100
AcDbSymbolTable
 70
     0
  0
ENDTAB
  0
TABLE
  2
UCS
  5
7
330
0
100
AcDbSymbolTable
 70
     0
  0
ENDTAB
  0
TABLE
  2
APPID
  5
9
330
0
100
AcDbSymbolTable
 70
     2
  0
APPID
  5
12
330
9
100
AcDbSymbolTableRecord
100
AcDbRegAppTableRecord
  2
ACAD
 70
     0
  0
ENDTAB
  0
TABLE
  2
DIMSTYLE
  5
A
330
0
100
AcDbSymbolTable
 70
     1
  0
DIMSTYLE
105
27
330
A
100
AcDbSymbolTableRecord
100
AcDbDimStyleTableRecord
  2
ISO-25
 70
     0
  3

  4

  5

  6

  7

 40
1.0
 41
2.5
 42
0.625
 43
3.75
 44
1.25
 45
0.0
 46
0.0
 47
0.0
 48
0.0
140
2.5
141
2.5
142
0.0
143
0.03937007874016
144
1.0
145
0.0
146
1.0
147
0.625
 71
     0
 72
     0
 73
     0
 74
     0
 75
     0
 76
     0
 77
     1
 78
     8
170
     0
171
     3
172
     1
173
     0
174
     0
175
     0
176
     0
177
     0
178
     0
270
     2
271
     2
272
     2
273
     2
274
     3
340
11
275
     0
280
     0
281
     0
282
     0
283
     0
284
     8
285
     0
286
     0
287
     3
288
     0
  0
ENDTAB
  0
TABLE
  2
BLOCK_RECORD
  5
1
330
0
100
AcDbSymbolTable
 70
     1
  0
BLOCK_RECORD
  5
1F
330
1
100
AcDbSymbolTableRecord
100
AcDbBlockTableRecord
  2
*MODEL_SPACE
  0
BLOCK_RECORD
  5
1B
330
1
100
AcDbSymbolTableRecord
100
AcDbBlockTableRecord
  2
*PAPER_SPACE
  0
ENDTAB
  0
ENDSEC
  0
SECTION
  2
BLOCKS
  0
BLOCK
  5
20
330
1F
100
AcDbEntity
  8
0
100
AcDbBlockBegin
  2
*MODEL_SPACE
 70
     0
 10
0.0
 20
0.0
 30
0.0
  3
*MODEL_SPACE
  1

  0
ENDBLK
  5
21
330
1F
100
AcDbEntity
  8
0
100
AcDbBlockEnd
  0
BLOCK
  5
1C
330
1B
100
AcDbEntity
 67
     1
  8
0
100
AcDbBlockBegin
  2
*PAPER_SPACE
  1

  0
ENDBLK
  5
1D
330
1B
100
AcDbEntity
 67
     1
  8
0
100
AcDbBlockEnd
  0
ENDSEC
  0
SECTION
  2
ENTITIES
  0
SPLINE
  5
100
100
AcDbEntity
  8
Centerline
 62
7
100
AcDbSpline
 70
8
 71
3
 72
8
 73
4
 74
0
 40
0
 40
0
 40
0
 40
0
 40
1
 40
1
 40
1
 40
1
 10
280.021485
 20
253.936324
 30
0.0
 10
294.516054
 20
253.583088
 30
0.0
 10
309.010619
 20
253.229852
 30
0.0
 10
323.505619
 20
252.893937
 30
0.0
  0
SPLINE
  5
101
100
AcDbEntity
  8
Centerline
 62
7
100
AcDbSpline
 70
8
 71
3
 72
8
 73
4
 74
0
 40
0
 40
0
 40
0
 40
0
 40
1
 40
1
 40
1
 40
1
 10
323.505619
 20
252.893937
 30
0.0
 10
337.999749
 20
252.558022
 30
0.0
 10
352.494311
 20
252.239392
 30
0.0
 10
366.989753
 20
251.966566
 30
0.0
  0
SPLINE
  5
102
100
AcDbEntity
  8
Centerline
 62
7
100
AcDbSpline
 70
8
 71
3
 72
8
 73
4
 74
0
 40
0
 40
0
 40
0
 40
0
 40
1
 40
1
 40
1
 40
1
 10
366.989753
 20
251.966566
 30
0.0
 10
374.236894
 20
251.830134
 30
0.0
 10
381.484260
 20
251.705153
 30
0.0
 10
388.731821
 20
251.592783
 30
0.0
  0
SPLINE
  5
103
100
AcDbEntity
  8
Centerline
 62
7
100
AcDbSpline
 70
8
 71
3
 72
8
 73
4
 74
0
 40
0
 40
0
 40
0
 40
0
 40
1
 40
1
 40
1
 40
1
 10
388.731821
 20
251.592783
 30
0.0
 10
395.978995
 20
251.480377
 30
0.0
 10
403.226350
 20
251.380581
 30
0.0
 10
410.473886
 20
251.294663
 30
0.0
  0
SPLINE
  5
104
100
AcDbEntity
  8
Centerline
 62
7
100
AcDbSpline
 70
8
 71
3
 72
8
 73
4
 74
0
 40
0
 40
0
 40
0
 40
0
 40
1
 40
1
 40
1
 40
1
 10
410.473886
 20
251.294663
 30
0.0
 10
417.721096
 20
251.208746
 30
0.0
 10
424.968451
 20
251.136707
 30
0.0
 10
432.215951
 20
251.079852
 30
0.0
  0
SPLINE
  5
105
100
AcDbEntity
  8
Centerline
 62
7
100
AcDbSpline
 70
8
 71
3
 72
8
 73
4
 74
0
 40
0
 40
0
 40
0
 40
0
 40
1
 40
1
 40
1
 40
1
 10
432.215951
 20
251.079852
 30
0.0
 10
439.463198
 20
251.022960
 30
0.0
 10
446.710589
 20
250.981215
 30
0.0
 10
453.958016
 20
250.955922
 30
0.0
  0
SPLINE
  5
106
100
AcDbEntity
  8
Centerline
 62
7
100
AcDbSpline
 70
8
 71
3
 72
8
 73
4
 74
0
 40
0
 40
0
 40
0
 40
0
 40
1
 40
1
 40
1
 40
1
 10
453.958016
 20
250.955922
 30
0.0
 10
461.205335
 20
250.930592
 30
0.0
 10
468.452726
 20
250.921714
 30
0.0
 10
475.700081
 20
250.928926
 30
0.0
  0
SPLINE
  5
107
100
AcDbEntity
  8
Centerline
 62
7
100
AcDbSpline
 70
8
 71
3
 72
8
 73
4
 74
0
 40
0
 40
0
 40
0
 40
0
 40
1
 40
1
 40
1
 40
1
 10
475.700081
 20
250.928926
 30
0.0
 10
482.947472
 20
250.936173
 30
0.0
 10
490.194827
 20
250.959509
 30
0.0
 10
497.442146
 20
250.998718
 30
0.0
  0
SPLINE
  5
108
100
AcDbEntity
  8
Centerline
 62
7
100
AcDbSpline
 70
8
 71
3
 72
8
 73
4
 74
0
 40
0
 40
0
 40
0
 40
0
 40
1
 40
1
 40
1
 40
1
 10
497.442146
 20
250.998718
 30
0.0
 10
504.689610
 20
251.037926
 30
0.0
 10
511.936965
 20
251.092969
 30
0.0
 10
519.184211
 20
251.163595
 30
0.0
  0
SPLINE
  5
109
100
AcDbEntity
  8
Centerline
 62
7
100
AcDbSpline
 70
8
 71
3
 72
8
 73
4
 74
0
 40
0
 40
0
 40
0
 40
0
 40
1
 40
1
 40
1
 40
1
 10
519.184211
 20
251.163595
 30
0.0
 10
526.431711
 20
251.234184
 30
0.0
 10
533.679102
 20
251.320355
 30
0.0
 10
540.926276
 20
251.421782
 30
0.0
  0
SPLINE
  5
10a
100
AcDbEntity
  8
Centerline
 62
7
100
AcDbSpline
 70
8
 71
3
 72
8
 73
4
 74
0
 40
0
 40
0
 40
0
 40
0
 40
1
 40
1
 40
1
 40
1
 10
540.926276
 20
251.421782
 30
0.0
 10
548.173885
 20
251.523245
 30
0.0
 10
555.421276
 20
251.639964
 30
0.0
 10
562.668341
 20
251.776902
 30
0.0
  0
SPLINE
  5
10b
100
AcDbEntity
  8
Centerline
 62
7
100
AcDbSpline
 70
8
 71
3
 72
8
 73
4
 74
0
 40
0
 40
0
 40
0
 40
0
 40
1
 40
1
 40
1
 40
1
 10
562.668341
 20
251.776902
 30
0.0
 10
569.916131
 20
251.913841
 30
0.0
 10
577.163595
 20
252.071072
 30
0.0
 10
584.410406
 20
252.253452
 30
0.0
  0
SPLINE
  5
10c
100
AcDbEntity
  8
Centerline
 62
7
100
AcDbSpline
 70
8
 71
3
 72
8
 73
4
 74
0
 40
0
 40
0
 40
0
 40
0
 40
1
 40
1
 40
1
 40
1
 10
584.410406
 20
252.253452
 30
0.0
 10
591.658486
 20
252.435904
 30
0.0
 10
598.905986
 20
252.643505
 30
0.0
 10
606.152471
 20
252.881363
 30
0.0
  0
SPLINE
  5
10d
100
AcDbEntity
  8
Centerline
 62
7
100
AcDbSpline
 70
8
 71
3
 72
8
 73
4
 74
0
 40
0
 40
0
 40
0
 40
0
 40
1
 40
1
 40
1
 40
1
 10
606.152471
 20
252.881363
 30
0.0
 10
613.400950
 20
253.119257
 30
0.0
 10
620.648486
 20
253.387373
 30
0.0
 10
627.894536
 20
253.690421
 30
0.0
  0
SPLINE
  5
10e
100
AcDbEntity
  8
Centerline
 62
7
100
AcDbSpline
 70
8
 71
3
 72
8
 73
4
 74
0
 40
0
 40
0
 40
0
 40
0
 40
1
 40
1
 40
1
 40
1
 10
627.894536
 20
253.690421
 30
0.0
 10
635.105727
 20
253.991984
 30
0.0
 10
642.315504
 20
254.328189
 30
0.0
 10
649.523361
 20
254.701101
 30
0.0
  0
SPLINE
  5
10f
100
AcDbEntity
  8
Centerline
 62
7
100
AcDbSpline
 70
8
 71
3
 72
8
 73
4
 74
0
 40
0
 40
0
 40
0
 40
0
 40
1
 40
1
 40
1
 40
1
 10
649.523361
 20
254.701101
 30
0.0
 10
656.508543
 20
255.062491
 30
0.0
 10
663.491950
 20
255.458377
 30
0.0
 10
670.472747
 20
255.896335
 30
0.0
  0
SPLINE
  5
110
100
AcDbEntity
  8
Centerline
 62
7
100
AcDbSpline
 70
8
 71
3
 72
8
 73
4
 74
0
 40
0
 40
0
 40
0
 40
0
 40
1
 40
1
 40
1
 40
1
 10
670.472747
 20
255.896335
 30
0.0
 10
677.005658
 20
256.306173
 30
0.0
 10
683.536322
 20
256.752828
 30
0.0
 10
690.063253
 20
257.249634
 30
0.0
  0
SPLINE
  5
111
100
AcDbEntity
  8
Centerline
 62
7
100
AcDbSpline
 70
8
 71
3
 72
8
 73
4
 74
0
 40
0
 40
0
 40
0
 40
0
 40
1
 40
1
 40
1
 40
1
 10
690.063253
 20
257.249634
 30
0.0
 10
695.918029
 20
257.695274
 30
0.0
 10
701.769797
 20
258.181245
 30
0.0
 10
707.615441
 20
258.734544
 30
0.0
  0
SPLINE
  5
112
100
AcDbEntity
  8
Centerline
 62
7
100
AcDbSpline
 70
8
 71
3
 72
8
 73
4
 74
0
 40
0
 40
0
 40
0
 40
0
 40
1
 40
1
 40
1
 40
1
 10
707.615441
 20
258.734544
 30
0.0
 10
712.641627
 20
259.210261
 30
0.0
 10
717.663247
 20
259.735766
 30
0.0
 10
722.676351
 20
260.334325
 30
0.0
  0
SPLINE
  5
113
100
AcDbEntity
  8
Centerline
 62
7
100
AcDbSpline
 70
8
 71
3
 72
8
 73
4
 74
0
 40
0
 40
0
 40
0
 40
0
 40
1
 40
1
 40
1
 40
1
 10
722.676351
 20
260.334325
 30
0.0
 10
727.024873
 20
260.853598
 30
0.0
 10
731.367017
 20
261.427843
 30
0.0
 10
735.698942
 20
262.071299
 30
0.0
  0
SPLINE
  5
114
100
AcDbEntity
  8
Centerline
 62
7
100
AcDbSpline
 70
8
 71
3
 72
8
 73
4
 74
0
 40
0
 40
0
 40
0
 40
0
 40
1
 40
1
 40
1
 40
1
 10
735.698942
 20
262.071299
 30
0.0
 10
739.595772
 20
262.650145
 30
0.0
 10
743.484377
 20
263.285014
 30
0.0
 10
747.362618
 20
263.977426
 30
0.0
  0
SPLINE
  5
115
100
AcDbEntity
  8
Centerline
 62
7
100
AcDbSpline
 70
8
 71
3
 72
8
 73
4
 74
0
 40
0
 40
0
 40
0
 40
0
 40
1
 40
1
 40
1
 40
1
 10
747.362618
 20
263.977426
 30
0.0
 10
751.032896
 20
264.632732
 30
0.0
 10
754.693861
 20
265.339530
 30
0.0
 10
758.346890
 20
266.084775
 30
0.0
  0
SPLINE
  5
116
100
AcDbEntity
  8
Centerline
 62
7
100
AcDbSpline
 70
8
 71
3
 72
8
 73
4
 74
0
 40
0
 40
0
 40
0
 40
0
 40
1
 40
1
 40
1
 40
1
 10
758.346890
 20
266.084775
 30
0.0
 10
761.978395
 20
266.825600
 30
0.0
 10
765.602108
 20
267.604365
 30
0.0
 10
769.217923
 20
268.418025
 30
0.0
  0
SPLINE
  5
117
100
AcDbEntity
  8
Centerline
 62
7
100
AcDbSpline
 70
8
 71
3
 72
8
 73
4
 74
0
 40
0
 40
0
 40
0
 40
0
 40
1
 40
1
 40
1
 40
1
 10
769.217923
 20
268.418025
 30
0.0
 10
772.849572
 20
269.235273
 30
0.0
 10
776.473322
 20
270.087707
 30
0.0
 10
780.088955
 20
270.973044
 30
0.0
  0
SPLINE
  5
118
100
AcDbEntity
  8
Centerline
 62
7
100
AcDbSpline
 70
8
 71
3
 72
8
 73
4
 74
0
 40
0
 40
0
 40
0
 40
0
 40
1
 40
1
 40
1
 40
1
 10
780.088955
 20
270.973044
 30
0.0
 10
783.720786
 20
271.862367
 30
0.0
 10
787.344463
 20
272.784919
 30
0.0
 10
790.959988
 20
273.738308
 30
0.0
  0
SPLINE
  5
119
100
AcDbEntity
  8
Centerline
 62
7
100
AcDbSpline
 70
8
 71
3
 72
8
 73
4
 74
0
 40
0
 40
0
 40
0
 40
0
 40
1
 40
1
 40
1
 40
1
 10
790.959988
 20
273.738308
 30
0.0
 10
794.591855
 20
274.695974
 30
0.0
 10
798.215496
 20
275.684767
 30
0.0
 10
801.831020
 20
276.702332
 30
0.0
  0
SPLINE
  5
11a
100
AcDbEntity
  8
Centerline
 62
7
100
AcDbSpline
 70
8
 71
3
 72
8
 73
4
 74
0
 40
0
 40
0
 40
0
 40
0
 40
1
 40
1
 40
1
 40
1
 10
801.831020
 20
276.702332
 30
0.0
 10
805.462887
 20
277.724499
 30
0.0
 10
809.086565
 20
278.775728
 30
0.0
 10
812.702053
 20
279.854424
 30
0.0
  0
SPLINE
  5
11b
100
AcDbEntity
  8
Centerline
 62
7
100
AcDbSpline
 70
8
 71
3
 72
8
 73
4
 74
0
 40
0
 40
0
 40
0
 40
0
 40
1
 40
1
 40
1
 40
1
 10
812.702053
 20
279.854424
 30
0.0
 10
816.333992
 20
280.938012
 30
0.0
 10
819.957669
 20
282.049322
 30
0.0
 10
823.573085
 20
283.186830
 30
0.0
  0
SPLINE
  5
11c
100
AcDbEntity
  8
Centerline
 62
7
100
AcDbSpline
 70
8
 71
3
 72
8
 73
4
 74
0
 40
0
 40
0
 40
0
 40
0
 40
1
 40
1
 40
1
 40
1
 10
823.573085
 20
283.186830
 30
0.0
 10
827.205061
 20
284.329521
 30
0.0
 10
830.828702
 20
285.498628
 30
0.0
 10
834.444118
 20
286.692629
 30
0.0
  0
SPLINE
  5
11d
100
AcDbEntity
  8
Centerline
 62
7
100
AcDbSpline
 70
8
 71
3
 72
8
 73
4
 74
0
 40
0
 40
0
 40
0
 40
0
 40
1
 40
1
 40
1
 40
1
 10
834.444118
 20
286.692629
 30
0.0
 10
838.076057
 20
287.892067
 30
0.0
 10
841.699662
 20
289.116652
 30
0.0
 10
845.315150
 20
290.364864
 30
0.0
  0
SPLINE
  5
11e
100
AcDbEntity
  8
Centerline
 62
7
100
AcDbSpline
 70
8
 71
3
 72
8
 73
4
 74
0
 40
0
 40
0
 40
0
 40
0
 40
1
 40
1
 40
1
 40
1
 10
845.315150
 20
290.364864
 30
0.0
 10
848.935059
 20
291.614562
 30
0.0
 10
852.546778
 20
292.887958
 30
0.0
 10
856.151069
 20
294.182010
 30
0.0
  0
SPLINE
  5
11f
100
AcDbEntity
  8
Centerline
 62
7
100
AcDbSpline
 70
8
 71
3
 72
8
 73
4
 74
0
 40
0
 40
0
 40
0
 40
0
 40
1
 40
1
 40
1
 40
1
 10
856.151069
 20
294.182010
 30
0.0
 10
859.700063
 20
295.456240
 30
0.0
 10
863.241881
 20
296.750472
 30
0.0
 10
866.776308
 20
298.064454
 30
0.0
  0
SPLINE
  5
120
100
AcDbEntity
  8
Centerline
 62
7
100
AcDbSpline
 70
8
 71
3
 72
8
 73
4
 74
0
 40
0
 40
0
 40
0
 40
0
 40
1
 40
1
 40
1
 40
1
 10
866.776308
 20
298.064454
 30
0.0
 10
870.184231
 20
299.331364
 30
0.0
 10
873.585306
 20
300.616610
 30
0.0
 10
876.980257
 20
301.917873
 30
0.0
  0
SPLINE
  5
121
100
AcDbEntity
  8
Centerline
 62
7
100
AcDbSpline
 70
8
 71
3
 72
8
 73
4
 74
0
 40
0
 40
0
 40
0
 40
0
 40
1
 40
1
 40
1
 40
1
 10
876.980257
 20
301.917873
 30
0.0
 10
883.105033
 20
304.265545
 30
0.0
 10
889.209951
 20
306.665434
 30
0.0
 10
895.278742
 20
309.155118
 30
0.0
  0
SPLINE
  5
122
100
AcDbEntity
  8
Centerline
 62
7
100
AcDbSpline
 70
8
 71
3
 72
8
 73
4
 74
0
 40
0
 40
0
 40
0
 40
0
 40
1
 40
1
 40
1
 40
1
 10
895.278742
 20
309.155118
 30
0.0
 10
899.962381
 20
311.076573
 30
0.0
 10
904.624532
 20
313.051477
 30
0.0
 10
909.295054
 20
315.000798
 30
0.0
  0
SPLINE
  5
123
100
AcDbEntity
  8
Centerline
 62
7
100
AcDbSpline
 70
8
 71
3
 72
8
 73
4
 74
0
 40
0
 40
0
 40
0
 40
0
 40
1
 40
1
 40
1
 40
1
 10
909.295054
 20
315.000798
 30
0.0
 10
912.619234
 20
316.388195
 30
0.0
 10
915.947691
 20
317.762620
 30
0.0
 10
919.197296
 20
319.333774
 30
0.0
  0
SPLINE
  5
124
100
AcDbEntity
  8
Centerline
 62
7
100
AcDbSpline
 70
8
 71
3
 72
8
 73
4
 74
0
 40
0
 40
0
 40
0
 40
0
 40
1
 40
1
 40
1
 40
1
 10
919.197296
 20
319.333774
 30
0.0
 10
919.711858
 20
319.582576
 30
0.0
 10
920.224464
 20
319.836306
 30
0.0
 10
920.706268
 20
320.141601
 30
0.0
  0
SPLINE
  5
125
100
AcDbEntity
  8
Centerline
 62
7
100
AcDbSpline
 70
8
 71
3
 72
8
 73
4
 74
0
 40
0
 40
0
 40
0
 40
0
 40
1
 40
1
 40
1
 40
1
 10
920.706268
 20
320.141601
 30
0.0
 10
921.264966
 20
320.495598
 30
0.0
 10
921.782246
 20
320.918879
 30
0.0
 10
922.245207
 20
321.395067
 30
0.0
  0
SPLINE
  5
126
100
AcDbEntity
  8
Centerline
 62
7
100
AcDbSpline
 70
8
 71
3
 72
8
 73
4
 74
0
 40
0
 40
0
 40
0
 40
0
 40
1
 40
1
 40
1
 40
1
 10
922.245207
 20
321.395067
 30
0.0
 10
922.666387
 20
321.828241
 30
0.0
 10
923.042634
 20
322.305153
 30
0.0
 10
923.344414
 20
322.827507
 30
0.0
  0
SPLINE
  5
127
100
AcDbEntity
  8
Centerline
 62
7
100
AcDbSpline
 70
8
 71
3
 72
8
 73
4
 74
0
 40
0
 40
0
 40
0
 40
0
 40
1
 40
1
 40
1
 40
1
 10
923.344414
 20
322.827507
 30
0.0
 10
923.635467
 20
323.331234
 30
0.0
 10
923.857273
 20
323.877250
 30
0.0
 10
924.003923
 20
324.438992
 30
0.0
  0
SPLINE
  5
128
100
AcDbEntity
  8
Centerline
 62
7
100
AcDbSpline
 70
8
 71
3
 72
8
 73
4
 74
0
 40
0
 40
0
 40
0
 40
0
 40
1
 40
1
 40
1
 40
1
 10
924.003923
 20
324.438992
 30
0.0
 10
924.154306
 20
325.014831
 30
0.0
 10
924.225692
 20
325.607230
 30
0.0
 10
924.297115
 20
326.199628
 30
0.0
  0
SPLINE
  5
129
100
AcDbEntity
  8
Centerline
 62
7
100
AcDbSpline
 70
8
 71
3
 72
8
 73
4
 74
0
 40
0
 40
0
 40
0
 40
0
 40
1
 40
1
 40
1
 40
1
 10
280.021485
 20
170.543148
 30
0.0
 10
294.516040
 20
170.919757
 30
0.0
 10
309.010590
 20
171.296402
 30
0.0
 10
323.505619
 20
171.654494
 30
0.0
  0
SPLINE
  5
12a
100
AcDbEntity
  8
Centerline
 62
7
100
AcDbSpline
 70
8
 71
3
 72
8
 73
4
 74
0
 40
0
 40
0
 40
0
 40
0
 40
1
 40
1
 40
1
 40
1
 10
323.505619
 20
171.654494
 30
0.0
 10
337.999746
 20
172.012586
 30
0.0
 10
352.494347
 20
172.352124
 30
0.0
 10
366.989753
 20
172.654556
 30
0.0
  0
SPLINE
  5
12b
100
AcDbEntity
  8
Centerline
 62
7
100
AcDbSpline
 70
8
 71
3
 72
8
 73
4
 74
0
 40
0
 40
0
 40
0
 40
0
 40
1
 40
1
 40
1
 40
1
 10
366.989753
 20
172.654556
 30
0.0
 10
381.483691
 20
172.956988
 30
0.0
 10
395.978452
 20
173.222350
 30
0.0
 10
410.473886
 20
173.440641
 30
0.0
  0
SPLINE
  5
12c
100
AcDbEntity
  8
Centerline
 62
7
100
AcDbSpline
 70
8
 71
3
 72
8
 73
4
 74
0
 40
0
 40
0
 40
0
 40
0
 40
1
 40
1
 40
1
 40
1
 10
410.473886
 20
173.440641
 30
0.0
 10
417.721060
 20
173.549786
 30
0.0
 10
424.968415
 20
173.647154
 30
0.0
 10
432.215951
 20
173.731513
 30
0.0
  0
SPLINE
  5
12d
100
AcDbEntity
  8
Centerline
 62
7
100
AcDbSpline
 70
8
 71
3
 72
8
 73
4
 74
0
 40
0
 40
0
 40
0
 40
0
 40
1
 40
1
 40
1
 40
1
 10
432.215951
 20
173.731513
 30
0.0
 10
439.463161
 20
173.815872
 30
0.0
 10
446.710516
 20
173.887186
 30
0.0
 10
453.958016
 20
173.944259
 30
0.0
  0
SPLINE
  5
12e
100
AcDbEntity
  8
Centerline
 62
7
100
AcDbSpline
 70
8
 71
3
 72
8
 73
4
 74
0
 40
0
 40
0
 40
0
 40
0
 40
1
 40
1
 40
1
 40
1
 10
453.958016
 20
173.944259
 30
0.0
 10
468.452436
 20
174.058405
 30
0.0
 10
482.947291
 20
174.115442
 30
0.0
 10
497.442146
 20
174.143996
 30
0.0
  0
SPLINE
  5
12f
100
AcDbEntity
  8
Centerline
 62
7
100
AcDbSpline
 70
8
 71
3
 72
8
 73
4
 74
0
 40
0
 40
0
 40
0
 40
0
 40
1
 40
1
 40
1
 40
1
 10
497.442146
 20
174.143996
 30
0.0
 10
511.936856
 20
174.172515
 30
0.0
 10
526.431566
 20
174.172551
 30
0.0
 10
540.926276
 20
174.172515
 30
0.0
  0
SPLINE
  5
130
100
AcDbEntity
  8
Centerline
 62
7
100
AcDbSpline
 70
8
 71
3
 72
8
 73
4
 74
0
 40
0
 40
0
 40
0
 40
0
 40
1
 40
1
 40
1
 40
1
 10
540.926276
 20
174.172515
 30
0.0
 10
569.915696
 20
174.172515
 30
0.0
 10
598.905116
 20
174.172515
 30
0.0
 10
627.894536
 20
174.172515
 30
0.0
  0
SPLINE
  5
131
100
AcDbEntity
  8
Centerline
 62
7
100
AcDbSpline
 70
8
 71
3
 72
8
 73
4
 74
0
 40
0
 40
0
 40
0
 40
0
 40
1
 40
1
 40
1
 40
1
 10
627.894536
 20
174.172515
 30
0.0
 10
635.104133
 20
174.172551
 30
0.0
 10
642.313765
 20
174.172515
 30
0.0
 10
649.523361
 20
174.158274
 30
0.0
  0
SPLINE
  5
132
100
AcDbEntity
  8
Centerline
 62
7
100
AcDbSpline
 70
8
 71
3
 72
8
 73
4
 74
0
 40
0
 40
0
 40
0
 40
0
 40
1
 40
1
 40
1
 40
1
 10
649.523361
 20
174.158274
 30
0.0
 10
656.506550
 20
174.144395
 30
0.0
 10
663.489775
 20
174.117073
 30
0.0
 10
670.472747
 20
174.058405
 30
0.0
  0
SPLINE
  5
133
100
AcDbEntity
  8
Centerline
 62
7
100
AcDbSpline
 70
8
 71
3
 72
8
 73
4
 74
0
 40
0
 40
0
 40
0
 40
0
 40
1
 40
1
 40
1
 40
1
 10
670.472747
 20
174.058405
 30
0.0
 10
677.003338
 20
174.003507
 30
0.0
 10
683.533713
 20
173.921213
 30
0.0
 10
690.063253
 20
173.787318
 30
0.0
  0
SPLINE
  5
134
100
AcDbEntity
  8
Centerline
 62
7
100
AcDbSpline
 70
8
 71
3
 72
8
 73
4
 74
0
 40
0
 40
0
 40
0
 40
0
 40
1
 40
1
 40
1
 40
1
 10
690.063253
 20
173.787318
 30
0.0
 10
695.915493
 20
173.667338
 30
0.0
 10
701.767079
 20
173.505939
 30
0.0
 10
707.615441
 20
173.259493
 30
0.0
  0
SPLINE
  5
135
100
AcDbEntity
  8
Centerline
 62
7
100
AcDbSpline
 70
8
 71
3
 72
8
 73
4
 74
0
 40
0
 40
0
 40
0
 40
0
 40
1
 40
1
 40
1
 40
1
 10
707.615441
 20
173.259493
 30
0.0
 10
712.639525
 20
173.047762
 30
0.0
 10
717.661254
 20
172.773268
 30
0.0
 10
722.676351
 20
172.404378
 30
0.0
  0
SPLINE
  5
136
100
AcDbEntity
  8
Centerline
 62
7
100
AcDbSpline
 70
8
 71
3
 72
8
 73
4
 74
0
 40
0
 40
0
 40
0
 40
0
 40
1
 40
1
 40
1
 40
1
 10
722.676351
 20
172.404378
 30
0.0
 10
727.023822
 20
172.084588
 30
0.0
 10
731.366328
 20
171.693847
 30
0.0
 10
735.698942
 20
171.212224
 30
0.0
  0
SPLINE
  5
137
100
AcDbEntity
  8
Centerline
 62
7
100
AcDbSpline
 70
8
 71
3
 72
8
 73
4
 74
0
 40
0
 40
0
 40
0
 40
0
 40
1
 40
1
 40
1
 40
1
 10
735.698942
 20
171.212224
 30
0.0
 10
739.596098
 20
170.779013
 30
0.0
 10
743.485246
 20
170.272278
 30
0.0
 10
747.362618
 20
169.688395
 30
0.0
  0
SPLINE
  5
138
100
AcDbEntity
  8
Centerline
 62
7
100
AcDbSpline
 70
8
 71
3
 72
8
 73
4
 74
0
 40
0
 40
0
 40
0
 40
0
 40
1
 40
1
 40
1
 40
1
 10
747.362618
 20
169.688395
 30
0.0
 10
751.034418
 20
169.135494
 30
0.0
 10
754.695636
 20
168.513454
 30
0.0
 10
758.346890
 20
167.838218
 30
0.0
  0
SPLINE
  5
139
100
AcDbEntity
  8
Centerline
 62
7
100
AcDbSpline
 70
8
 71
3
 72
8
 73
4
 74
0
 40
0
 40
0
 40
0
 40
0
 40
1
 40
1
 40
1
 40
1
 10
758.346890
 20
167.838218
 30
0.0
 10
761.980533
 20
167.166279
 30
0.0
 10
765.604283
 20
166.441653
 30
0.0
 10
769.217923
 20
165.669737
 30
0.0
  0
SPLINE
  5
13a
100
AcDbEntity
  8
Centerline
 62
7
100
AcDbSpline
 70
8
 71
3
 72
8
 73
4
 74
0
 40
0
 40
0
 40
0
 40
0
 40
1
 40
1
 40
1
 40
1
 10
769.217923
 20
165.669737
 30
0.0
 10
772.851927
 20
164.893436
 30
0.0
 10
776.475714
 20
164.069340
 30
0.0
 10
780.088955
 20
163.201614
 30
0.0
  0
SPLINE
  5
13b
100
AcDbEntity
  8
Centerline
 62
7
100
AcDbSpline
 70
8
 71
3
 72
8
 73
4
 74
0
 40
0
 40
0
 40
0
 40
0
 40
1
 40
1
 40
1
 40
1
 10
780.088955
 20
163.201614
 30
0.0
 10
783.723250
 20
162.328851
 30
0.0
 10
787.346891
 20
161.411952
 30
0.0
 10
790.959988
 20
160.455337
 30
0.0
  0
SPLINE
  5
13c
100
AcDbEntity
  8
Centerline
 62
7
100
AcDbSpline
 70
8
 71
3
 72
8
 73
4
 74
0
 40
0
 40
0
 40
0
 40
0
 40
1
 40
1
 40
1
 40
1
 10
790.959988
 20
160.455337
 30
0.0
 10
794.594246
 20
159.493106
 30
0.0
 10
798.217815
 20
158.490688
 30
0.0
 10
801.831020
 20
157.452251
 30
0.0
  0
SPLINE
  5
13d
100
AcDbEntity
  8
Centerline
 62
7
100
AcDbSpline
 70
8
 71
3
 72
8
 73
4
 74
0
 40
0
 40
0
 40
0
 40
0
 40
1
 40
1
 40
1
 40
1
 10
801.831020
 20
157.452251
 30
0.0
 10
805.465206
 20
156.407798
 30
0.0
 10
809.088884
 20
155.326891
 30
0.0
 10
812.702053
 20
154.211995
 30
0.0
  0
SPLINE
  5
13e
100
AcDbEntity
  8
Centerline
 62
7
100
AcDbSpline
 70
8
 71
3
 72
8
 73
4
 74
0
 40
0
 40
0
 40
0
 40
0
 40
1
 40
1
 40
1
 40
1
 10
812.702053
 20
154.211995
 30
0.0
 10
816.336311
 20
153.090575
 30
0.0
 10
819.959952
 20
151.934803
 30
0.0
 10
823.573085
 20
150.747034
 30
0.0
  0
SPLINE
  5
13f
100
AcDbEntity
  8
Centerline
 62
7
100
AcDbSpline
 70
8
 71
3
 72
8
 73
4
 74
0
 40
0
 40
0
 40
0
 40
0
 40
1
 40
1
 40
1
 40
1
 10
823.573085
 20
150.747034
 30
0.0
 10
827.207344
 20
149.552308
 30
0.0
 10
830.830985
 20
148.325222
 30
0.0
 10
834.444118
 20
147.068059
 30
0.0
  0
SPLINE
  5
140
100
AcDbEntity
  8
Centerline
 62
7
100
AcDbSpline
 70
8
 71
3
 72
8
 73
4
 74
0
 40
0
 40
0
 40
0
 40
0
 40
1
 40
1
 40
1
 40
1
 10
834.444118
 20
147.068059
 30
0.0
 10
838.078267
 20
145.803613
 30
0.0
 10
841.701872
 20
144.508728
 30
0.0
 10
845.315150
 20
143.185796
 30
0.0
  0
SPLINE
  5
141
100
AcDbEntity
  8
Centerline
 62
7
100
AcDbSpline
 70
8
 71
3
 72
8
 73
4
 74
0
 40
0
 40
0
 40
0
 40
0
 40
1
 40
1
 40
1
 40
1
 10
845.315150
 20
143.185796
 30
0.0
 10
848.942814
 20
141.857610
 30
0.0
 10
852.560077
 20
140.501122
 30
0.0
 10
856.166905
 20
139.117385
 30
0.0
  0
SPLINE
  5
142
100
AcDbEntity
  8
Centerline
 62
7
100
AcDbSpline
 70
8
 71
3
 72
8
 73
4
 74
0
 40
0
 40
0
 40
0
 40
0
 40
1
 40
1
 40
1
 40
1
 10
856.166905
 20
139.117385
 30
0.0
 10
859.756157
 20
137.740387
 30
0.0
 10
863.335010
 20
136.336394
 30
0.0
 10
866.903136
 20
134.905548
 30
0.0
  0
SPLINE
  5
143
100
AcDbEntity
  8
Centerline
 62
7
100
AcDbSpline
 70
8
 71
3
 72
8
 73
4
 74
0
 40
0
 40
0
 40
0
 40
0
 40
1
 40
1
 40
1
 40
1
 10
866.903136
 20
134.905548
 30
0.0
 10
870.415712
 20
133.496989
 30
0.0
 10
873.917887
 20
132.062411
 30
0.0
 10
877.408214
 20
130.599605
 30
0.0
  0
SPLINE
  5
144
100
AcDbEntity
  8
Centerline
 62
7
100
AcDbSpline
 70
8
 71
3
 72
8
 73
4
 74
0
 40
0
 40
0
 40
0
 40
0
 40
1
 40
1
 40
1
 40
1
 10
877.408214
 20
130.599605
 30
0.0
 10
880.805592
 20
129.175717
 30
0.0
 10
884.191738
 20
127.725123
 30
0.0
 10
887.566650
 20
126.248691
 30
0.0
  0
SPLINE
  5
145
100
AcDbEntity
  8
Centerline
 62
7
100
AcDbSpline
 70
8
 71
3
 72
8
 73
4
 74
0
 40
0
 40
0
 40
0
 40
0
 40
1
 40
1
 40
1
 40
1
 10
887.566650
 20
126.248691
 30
0.0
 10
890.794187
 20
124.836689
 30
0.0
 10
894.011397
 20
123.401097
 30
0.0
 10
897.214510
 20
121.934667
 30
0.0
  0
SPLINE
  5
146
100
AcDbEntity
  8
Centerline
 62
7
100
AcDbSpline
 70
8
 71
3
 72
8
 73
4
 74
0
 40
0
 40
0
 40
0
 40
0
 40
1
 40
1
 40
1
 40
1
 10
897.214510
 20
121.934667
 30
0.0
 10
902.666188
 20
119.438823
 30
0.0
 10
908.076882
 20
116.853691
 30
0.0
 10
913.501237
 20
114.299434
 30
0.0
  0
SPLINE
  5
147
100
AcDbEntity
  8
Centerline
 62
7
100
AcDbSpline
 70
8
 71
3
 72
8
 73
4
 74
0
 40
0
 40
0
 40
0
 40
0
 40
1
 40
1
 40
1
 40
1
 10
913.501237
 20
114.299434
 30
0.0
 10
917.553886
 20
112.391096
 30
0.0
 10
921.614144
 20
110.500008
 30
0.0
 10
925.548334
 20
108.343485
 30
0.0
  0
SPLINE
  5
148
100
AcDbEntity
  8
Centerline
 62
7
100
AcDbSpline
 70
8
 71
3
 72
8
 73
4
 74
0
 40
0
 40
0
 40
0
 40
0
 40
1
 40
1
 40
1
 40
1
 10
925.548334
 20
108.343485
 30
0.0
 10
926.222737
 20
107.973834
 30
0.0
 10
926.893443
 20
107.596391
 30
0.0
 10
927.522731
 20
107.156586
 30
0.0
  0
SPLINE
  5
149
100
AcDbEntity
  8
Centerline
 62
7
100
AcDbSpline
 70
8
 71
3
 72
8
 73
4
 74
0
 40
0
 40
0
 40
0
 40
0
 40
1
 40
1
 40
1
 40
1
 10
927.522731
 20
107.156586
 30
0.0
 10
928.300517
 20
106.612998
 30
0.0
 10
929.015107
 20
105.974216
 30
0.0
 10
929.651134
 20
105.265243
 30
0.0
  0
SPLINE
  5
14a
100
AcDbEntity
  8
Centerline
 62
7
100
AcDbSpline
 70
8
 71
3
 72
8
 73
4
 74
0
 40
0
 40
0
 40
0
 40
0
 40
1
 40
1
 40
1
 40
1
 10
929.651134
 20
105.265243
 30
0.0
 10
930.236866
 20
104.612329
 30
0.0
 10
930.755994
 20
103.899878
 30
0.0
 10
931.171340
 20
103.128687
 30
0.0
  0
SPLINE
  5
14b
100
AcDbEntity
  8
Centerline
 62
7
100
AcDbSpline
 70
8
 71
3
 72
8
 73
4
 74
0
 40
0
 40
0
 40
0
 40
0
 40
1
 40
1
 40
1
 40
1
 10
931.171340
 20
103.128687
 30
0.0
 10
931.575307
 20
102.378622
 30
0.0
 10
931.881073
 20
101.572933
 30
0.0
 10
932.083492
 20
100.746952
 30
0.0
  0
SPLINE
  5
14c
100
AcDbEntity
  8
Centerline
 62
7
100
AcDbSpline
 70
8
 71
3
 72
8
 73
4
 74
0
 40
0
 40
0
 40
0
 40
0
 40
1
 40
1
 40
1
 40
1
 10
932.083492
 20
100.746952
 30
0.0
 10
932.291237
 20
99.899193
 30
0.0
 10
932.390091
 20
99.030054
 30
0.0
 10
932.488909
 20
98.160915
 30
0.0
  0
SPLINE
  5
14d
100
AcDbEntity
  8
Centerline
 62
7
100
AcDbSpline
 70
8
 71
3
 72
8
 73
4
 74
0
 40
0
 40
0
 40
0
 40
0
 40
1
 40
1
 40
1
 40
1
 10
280.021485
 20
25.778645
 30
0.0
 10
294.516040
 20
25.402036
 30
0.0
 10
309.010590
 20
25.025391
 30
0.0
 10
323.505619
 20
24.667300
 30
0.0
  0
SPLINE
  5
14e
100
AcDbEntity
  8
Centerline
 62
7
100
AcDbSpline
 70
8
 71
3
 72
8
 73
4
 74
0
 40
0
 40
0
 40
0
 40
0
 40
1
 40
1
 40
1
 40
1
 10
323.505619
 20
24.667300
 30
0.0
 10
337.999746
 20
24.309244
 30
0.0
 10
352.494347
 20
23.969705
 30
0.0
 10
366.989753
 20
23.667237
 30
0.0
  0
SPLINE
  5
14f
100
AcDbEntity
  8
Centerline
 62
7
100
AcDbSpline
 70
8
 71
3
 72
8
 73
4
 74
0
 40
0
 40
0
 40
0
 40
0
 40
1
 40
1
 40
1
 40
1
 10
366.989753
 20
23.667237
 30
0.0
 10
381.483691
 20
23.364805
 30
0.0
 10
395.978452
 20
23.099443
 30
0.0
 10
410.473886
 20
22.881153
 30
0.0
  0
SPLINE
  5
150
100
AcDbEntity
  8
Centerline
 62
7
100
AcDbSpline
 70
8
 71
3
 72
8
 73
4
 74
0
 40
0
 40
0
 40
0
 40
0
 40
1
 40
1
 40
1
 40
1
 10
410.473886
 20
22.881153
 30
0.0
 10
417.721060
 20
22.772008
 30
0.0
 10
424.968415
 20
22.674639
 30
0.0
 10
432.215951
 20
22.590280
 30
0.0
  0
SPLINE
  5
151
100
AcDbEntity
  8
Centerline
 62
7
100
AcDbSpline
 70
8
 71
3
 72
8
 73
4
 74
0
 40
0
 40
0
 40
0
 40
0
 40
1
 40
1
 40
1
 40
1
 10
432.215951
 20
22.590280
 30
0.0
 10
439.463161
 20
22.505921
 30
0.0
 10
446.710516
 20
22.434607
 30
0.0
 10
453.958016
 20
22.377534
 30
0.0
  0
SPLINE
  5
152
100
AcDbEntity
  8
Centerline
 62
7
100
AcDbSpline
 70
8
 71
3
 72
8
 73
4
 74
0
 40
0
 40
0
 40
0
 40
0
 40
1
 40
1
 40
1
 40
1
 10
453.958016
 20
22.377534
 30
0.0
 10
468.452436
 20
22.263388
 30
0.0
 10
482.947291
 20
22.206352
 30
0.0
 10
497.442146
 20
22.177797
 30
0.0
  0
SPLINE
  5
153
100
AcDbEntity
  8
Centerline
 62
7
100
AcDbSpline
 70
8
 71
3
 72
8
 73
4
 74
0
 40
0
 40
0
 40
0
 40
0
 40
1
 40
1
 40
1
 40
1
 10
497.442146
 20
22.177797
 30
0.0
 10
511.936856
 20
22.149279
 30
0.0
 10
526.431566
 20
22.149279
 30
0.0
 10
540.926276
 20
22.149279
 30
0.0
  0
SPLINE
  5
154
100
AcDbEntity
  8
Centerline
 62
7
100
AcDbSpline
 70
8
 71
3
 72
8
 73
4
 74
0
 40
0
 40
0
 40
0
 40
0
 40
1
 40
1
 40
1
 40
1
 10
540.926276
 20
22.149279
 30
0.0
 10
569.915696
 20
22.149279
 30
0.0
 10
598.905116
 20
22.149279
 30
0.0
 10
627.894536
 20
22.149279
 30
0.0
  0
SPLINE
  5
155
100
AcDbEntity
  8
Centerline
 62
7
100
AcDbSpline
 70
8
 71
3
 72
8
 73
4
 74
0
 40
0
 40
0
 40
0
 40
0
 40
1
 40
1
 40
1
 40
1
 10
627.894536
 20
22.149279
 30
0.0
 10
635.104133
 20
22.149279
 30
0.0
 10
642.313765
 20
22.149279
 30
0.0
 10
649.523361
 20
22.163520
 30
0.0
  0
SPLINE
  5
156
100
AcDbEntity
  8
Centerline
 62
7
100
AcDbSpline
 70
8
 71
3
 72
8
 73
4
 74
0
 40
0
 40
0
 40
0
 40
0
 40
1
 40
1
 40
1
 40
1
 10
649.523361
 20
22.163520
 30
0.0
 10
656.506550
 20
22.177398
 30
0.0
 10
663.489775
 20
22.204721
 30
0.0
 10
670.472747
 20
22.263388
 30
0.0
  0
SPLINE
  5
157
100
AcDbEntity
  8
Centerline
 62
7
100
AcDbSpline
 70
8
 71
3
 72
8
 73
4
 74
0
 40
0
 40
0
 40
0
 40
0
 40
1
 40
1
 40
1
 40
1
 10
670.472747
 20
22.263388
 30
0.0
 10
677.003338
 20
22.318287
 30
0.0
 10
683.533713
 20
22.400581
 30
0.0
 10
690.063253
 20
22.534476
 30
0.0
  0
SPLINE
  5
158
100
AcDbEntity
  8
Centerline
 62
7
100
AcDbSpline
 70
8
 71
3
 72
8
 73
4
 74
0
 40
0
 40
0
 40
0
 40
0
 40
1
 40
1
 40
1
 40
1
 10
690.063253
 20
22.534476
 30
0.0
 10
695.915493
 20
22.654455
 30
0.0
 10
701.767079
 20
22.815854
 30
0.0
 10
707.615441
 20
23.062337
 30
0.0
  0
SPLINE
  5
159
100
AcDbEntity
  8
Centerline
 62
7
100
AcDbSpline
 70
8
 71
3
 72
8
 73
4
 74
0
 40
0
 40
0
 40
0
 40
0
 40
1
 40
1
 40
1
 40
1
 10
707.615441
 20
23.062337
 30
0.0
 10
712.639525
 20
23.274032
 30
0.0
 10
717.661254
 20
23.548525
 30
0.0
 10
722.676351
 20
23.917416
 30
0.0
  0
SPLINE
  5
15a
100
AcDbEntity
  8
Centerline
 62
7
100
AcDbSpline
 70
8
 71
3
 72
8
 73
4
 74
0
 40
0
 40
0
 40
0
 40
0
 40
1
 40
1
 40
1
 40
1
 10
722.676351
 20
23.917416
 30
0.0
 10
727.023822
 20
24.237205
 30
0.0
 10
731.366328
 20
24.627946
 30
0.0
 10
735.698942
 20
25.109569
 30
0.0
  0
SPLINE
  5
15b
100
AcDbEntity
  8
Centerline
 62
7
100
AcDbSpline
 70
8
 71
3
 72
8
 73
4
 74
0
 40
0
 40
0
 40
0
 40
0
 40
1
 40
1
 40
1
 40
1
 10
735.698942
 20
25.109569
 30
0.0
 10
739.596098
 20
25.542780
 30
0.0
 10
743.485246
 20
26.049515
 30
0.0
 10
747.362618
 20
26.633398
 30
0.0
  0
SPLINE
  5
15c
100
AcDbEntity
  8
Centerline
 62
7
100
AcDbSpline
 70
8
 71
3
 72
8
 73
4
 74
0
 40
0
 40
0
 40
0
 40
0
 40
1
 40
1
 40
1
 40
1
 10
747.362618
 20
26.633398
 30
0.0
 10
751.034418
 20
27.186299
 30
0.0
 10
754.695636
 20
27.808340
 30
0.0
 10
758.346890
 20
28.483576
 30
0.0
  0
SPLINE
  5
15d
100
AcDbEntity
  8
Centerline
 62
7
100
AcDbSpline
 70
8
 71
3
 72
8
 73
4
 74
0
 40
0
 40
0
 40
0
 40
0
 40
1
 40
1
 40
1
 40
1
 10
758.346890
 20
28.483576
 30
0.0
 10
761.980533
 20
29.155550
 30
0.0
 10
765.604283
 20
29.880141
 30
0.0
 10
769.217923
 20
30.652057
 30
0.0
  0
SPLINE
  5
15e
100
AcDbEntity
  8
Centerline
 62
7
100
AcDbSpline
 70
8
 71
3
 72
8
 73
4
 74
0
 40
0
 40
0
 40
0
 40
0
 40
1
 40
1
 40
1
 40
1
 10
769.217923
 20
30.652057
 30
0.0
 10
772.851927
 20
31.428357
 30
0.0
 10
776.475714
 20
32.252454
 30
0.0
 10
780.088955
 20
33.120180
 30
0.0
  0
SPLINE
  5
15f
100
AcDbEntity
  8
Centerline
 62
7
100
AcDbSpline
 70
8
 71
3
 72
8
 73
4
 74
0
 40
0
 40
0
 40
0
 40
0
 40
1
 40
1
 40
1
 40
1
 10
780.088955
 20
33.120180
 30
0.0
 10
783.723250
 20
33.992942
 30
0.0
 10
787.346891
 20
34.909841
 30
0.0
 10
790.959988
 20
35.866456
 30
0.0
  0
SPLINE
  5
160
100
AcDbEntity
  8
Centerline
 62
7
100
AcDbSpline
 70
8
 71
3
 72
8
 73
4
 74
0
 40
0
 40
0
 40
0
 40
0
 40
1
 40
1
 40
1
 40
1
 10
790.959988
 20
35.866456
 30
0.0
 10
794.594246
 20
36.828687
 30
0.0
 10
798.217815
 20
37.831105
 30
0.0
 10
801.831020
 20
38.869543
 30
0.0
  0
SPLINE
  5
161
100
AcDbEntity
  8
Centerline
 62
7
100
AcDbSpline
 70
8
 71
3
 72
8
 73
4
 74
0
 40
0
 40
0
 40
0
 40
0
 40
1
 40
1
 40
1
 40
1
 10
801.831020
 20
38.869543
 30
0.0
 10
805.465206
 20
39.914031
 30
0.0
 10
809.088884
 20
40.994938
 30
0.0
 10
812.702053
 20
42.109799
 30
0.0
  0
SPLINE
  5
162
100
AcDbEntity
  8
Centerline
 62
7
100
AcDbSpline
 70
8
 71
3
 72
8
 73
4
 74
0
 40
0
 40
0
 40
0
 40
0
 40
1
 40
1
 40
1
 40
1
 10
812.702053
 20
42.109799
 30
0.0
 10
816.336311
 20
43.231218
 30
0.0
 10
819.959952
 20
44.386990
 30
0.0
 10
823.573085
 20
45.574795
 30
0.0
  0
SPLINE
  5
163
100
AcDbEntity
  8
Centerline
 62
7
100
AcDbSpline
 70
8
 71
3
 72
8
 73
4
 74
0
 40
0
 40
0
 40
0
 40
0
 40
1
 40
1
 40
1
 40
1
 10
823.573085
 20
45.574795
 30
0.0
 10
827.207344
 20
46.769522
 30
0.0
 10
830.830985
 20
47.996608
 30
0.0
 10
834.444118
 20
49.253734
 30
0.0
  0
SPLINE
  5
164
100
AcDbEntity
  8
Centerline
 62
7
100
AcDbSpline
 70
8
 71
3
 72
8
 73
4
 74
0
 40
0
 40
0
 40
0
 40
0
 40
1
 40
1
 40
1
 40
1
 10
834.444118
 20
49.253734
 30
0.0
 10
838.078267
 20
50.518180
 30
0.0
 10
841.701872
 20
51.813065
 30
0.0
 10
845.315150
 20
53.135997
 30
0.0
  0
SPLINE
  5
165
100
AcDbEntity
  8
Centerline
 62
7
100
AcDbSpline
 70
8
 71
3
 72
8
 73
4
 74
0
 40
0
 40
0
 40
0
 40
0
 40
1
 40
1
 40
1
 40
1
 10
845.315150
 20
53.135997
 30
0.0
 10
848.942814
 20
54.464184
 30
0.0
 10
852.560077
 20
55.820671
 30
0.0
 10
856.166905
 20
57.204445
 30
0.0
  0
SPLINE
  5
166
100
AcDbEntity
  8
Centerline
 62
7
100
AcDbSpline
 70
8
 71
3
 72
8
 73
4
 74
0
 40
0
 40
0
 40
0
 40
0
 40
1
 40
1
 40
1
 40
1
 10
856.166905
 20
57.204445
 30
0.0
 10
859.756157
 20
58.581406
 30
0.0
 10
863.335010
 20
59.985400
 30
0.0
 10
866.903136
 20
61.416245
 30
0.0
  0
SPLINE
  5
167
100
AcDbEntity
  8
Centerline
 62
7
100
AcDbSpline
 70
8
 71
3
 72
8
 73
4
 74
0
 40
0
 40
0
 40
0
 40
0
 40
1
 40
1
 40
1
 40
1
 10
866.903136
 20
61.416245
 30
0.0
 10
870.415712
 20
62.824805
 30
0.0
 10
873.917887
 20
64.259383
 30
0.0
 10
877.408214
 20
65.722225
 30
0.0
  0
SPLINE
  5
168
100
AcDbEntity
  8
Centerline
 62
7
100
AcDbSpline
 70
8
 71
3
 72
8
 73
4
 74
0
 40
0
 40
0
 40
0
 40
0
 40
1
 40
1
 40
1
 40
1
 10
877.408214
 20
65.722225
 30
0.0
 10
880.805592
 20
67.146077
 30
0.0
 10
884.191738
 20
68.596671
 30
0.0
 10
887.566650
 20
70.073102
 30
0.0
  0
SPLINE
  5
169
100
AcDbEntity
  8
Centerline
 62
7
100
AcDbSpline
 70
8
 71
3
 72
8
 73
4
 74
0
 40
0
 40
0
 40
0
 40
0
 40
1
 40
1
 40
1
 40
1
 10
887.566650
 20
70.073102
 30
0.0
 10
890.794187
 20
71.485104
 30
0.0
 10
894.011397
 20
72.920697
 30
0.0
 10
897.214510
 20
74.387126
 30
0.0
  0
SPLINE
  5
16a
100
AcDbEntity
  8
Centerline
 62
7
100
AcDbSpline
 70
8
 71
3
 72
8
 73
4
 74
0
 40
0
 40
0
 40
0
 40
0
 40
1
 40
1
 40
1
 40
1
 10
897.214510
 20
74.387126
 30
0.0
 10
902.666188
 20
76.882970
 30
0.0
 10
908.076882
 20
79.468102
 30
0.0
 10
913.501237
 20
82.022360
 30
0.0
  0
SPLINE
  5
16b
100
AcDbEntity
  8
Centerline
 62
7
100
AcDbSpline
 70
8
 71
3
 72
8
 73
4
 74
0
 40
0
 40
0
 40
0
 40
0
 40
1
 40
1
 40
1
 40
1
 10
913.501237
 20
82.022360
 30
0.0
 10
917.553886
 20
83.930697
 30
0.0
 10
921.614144
 20
85.821786
 30
0.0
 10
925.548334
 20
87.978309
 30
0.0
  0
SPLINE
  5
16c
100
AcDbEntity
  8
Centerline
 62
7
100
AcDbSpline
 70
8
 71
3
 72
8
 73
4
 74
0
 40
0
 40
0
 40
0
 40
0
 40
1
 40
1
 40
1
 40
1
 10
925.548334
 20
87.978309
 30
0.0
 10
926.222737
 20
88.347960
 30
0.0
 10
926.893443
 20
88.725438
 30
0.0
 10
927.522731
 20
89.165208
 30
0.0
  0
SPLINE
  5
16d
100
AcDbEntity
  8
Centerline
 62
7
100
AcDbSpline
 70
8
 71
3
 72
8
 73
4
 74
0
 40
0
 40
0
 40
0
 40
0
 40
1
 40
1
 40
1
 40
1
 10
927.522731
 20
89.165208
 30
0.0
 10
928.300517
 20
89.708796
 30
0.0
 10
929.015107
 20
90.347578
 30
0.0
 10
929.651134
 20
91.056550
 30
0.0
  0
SPLINE
  5
16e
100
AcDbEntity
  8
Centerline
 62
7
100
AcDbSpline
 70
8
 71
3
 72
8
 73
4
 74
0
 40
0
 40
0
 40
0
 40
0
 40
1
 40
1
 40
1
 40
1
 10
929.651134
 20
91.056550
 30
0.0
 10
930.236866
 20
91.709464
 30
0.0
 10
930.755994
 20
92.421916
 30
0.0
 10
931.171340
 20
93.193107
 30
0.0
  0
SPLINE
  5
16f
100
AcDbEntity
  8
Centerline
 62
7
100
AcDbSpline
 70
8
 71
3
 72
8
 73
4
 74
0
 40
0
 40
0
 40
0
 40
0
 40
1
 40
1
 40
1
 40
1
 10
931.171340
 20
93.193107
 30
0.0
 10
931.575307
 20
93.943208
 30
0.0
 10
931.881073
 20
94.748860
 30
0.0
 10
932.083492
 20
95.574841
 30
0.0
  0
SPLINE
  5
170
100
AcDbEntity
  8
Centerline
 62
7
100
AcDbSpline
 70
8
 71
3
 72
8
 73
4
 74
0
 40
0
 40
0
 40
0
 40
0
 40
1
 40
1
 40
1
 40
1
 10
932.083492
 20
95.574841
 30
0.0
 10
932.291237
 20
96.422600
 30
0.0
 10
932.390091
 20
97.291740
 30
0.0
 10
932.488909
 20
98.160915
 30
0.0
  0
SPLINE
  5
171
100
AcDbEntity
  8
Waterline1
 62
5
100
AcDbSpline
 70
8
 71
3
 72
8
 73
4
 74
0
 40
0
 40
0
 40
0
 40
0
 40
1
 40
1
 40
1
 40
1
 10
306.394372
 20
98.242163
 30
0.0
 10
306.394372
 20
98.242163
 30
0.0
 10
458.791845
 20
117.560767
 30
0.0
 10
529.896465
 20
115.639020
 30
0.0
  0
SPLINE
  5
172
100
AcDbEntity
  8
Waterline1
 62
5
100
AcDbSpline
 70
8
 71
3
 72
8
 73
4
 74
0
 40
0
 40
0
 40
0
 40
0
 40
1
 40
1
 40
1
 40
1
 10
529.896465
 20
115.639020
 30
0.0
 10
601.000958
 20
113.717265
 30
0.0
 10
658.012808
 20
109.233225
 30
0.0
 10
717.586800
 20
106.670925
 30
0.0
  0
SPLINE
  5
173
100
AcDbEntity
  8
Waterline1
 62
5
100
AcDbSpline
 70
8
 71
3
 72
8
 73
4
 74
0
 40
0
 40
0
 40
0
 40
0
 40
1
 40
1
 40
1
 40
1
 10
717.586800
 20
106.670925
 30
0.0
 10
777.160875
 20
104.108497
 30
0.0
 10
802.784175
 20
102.186757
 30
0.0
 10
802.784175
 20
102.186757
 30
0.0
  0
SPLINE
  5
174
100
AcDbEntity
  8
Waterline1
 62
5
100
AcDbSpline
 70
8
 71
3
 72
8
 73
4
 74
0
 40
0
 40
0
 40
0
 40
0
 40
1
 40
1
 40
1
 40
1
 10
802.784175
 20
102.186757
 30
0.0
 10
802.784175
 20
102.186757
 30
0.0
 10
837.295500
 20
99.704483
 30
0.0
 10
839.777775
 20
99.544455
 30
0.0
  0
SPLINE
  5
175
100
AcDbEntity
  8
Waterline1
 62
5
100
AcDbSpline
 70
8
 71
3
 72
8
 73
4
 74
0
 40
0
 40
0
 40
0
 40
0
 40
1
 40
1
 40
1
 40
1
 10
839.777775
 20
99.544455
 30
0.0
 10
842.260125
 20
99.384285
 30
0.0
 10
843.339300
 20
97.905593
 30
0.0
 10
843.339300
 20
97.905593
 30
0.0
  0
SPLINE
  5
176
100
AcDbEntity
  8
Waterline1
 62
5
100
AcDbSpline
 70
8
 71
3
 72
8
 73
4
 74
0
 40
0
 40
0
 40
0
 40
0
 40
1
 40
1
 40
1
 40
1
 10
306.394372
 20
98.242163
 30
0.0
 10
306.394372
 20
98.242163
 30
0.0
 10
458.791845
 20
78.923550
 30
0.0
 10
529.896450
 20
80.845298
 30
0.0
  0
SPLINE
  5
177
100
AcDbEntity
  8
Waterline1
 62
5
100
AcDbSpline
 70
8
 71
3
 72
8
 73
4
 74
0
 40
0
 40
0
 40
0
 40
0
 40
1
 40
1
 40
1
 40
1
 10
529.896450
 20
80.845298
 30
0.0
 10
601.000958
 20
82.767053
 30
0.0
 10
658.012800
 20
87.251100
 30
0.0
 10
717.586793
 20
89.813400
 30
0.0
  0
SPLINE
  5
178
100
AcDbEntity
  8
Waterline1
 62
5
100
AcDbSpline
 70
8
 71
3
 72
8
 73
4
 74
0
 40
0
 40
0
 40
0
 40
0
 40
1
 40
1
 40
1
 40
1
 10
717.586793
 20
89.813400
 30
0.0
 10
777.160875
 20
92.375820
 30
0.0
 10
802.784175
 20
94.297560
 30
0.0
 10
802.784175
 20
94.297560
 30
0.0
  0
SPLINE
  5
179
100
AcDbEntity
  8
Waterline1
 62
5
100
AcDbSpline
 70
8
 71
3
 72
8
 73
4
 74
0
 40
0
 40
0
 40
0
 40
0
 40
1
 40
1
 40
1
 40
1
 10
802.784175
 20
94.297560
 30
0.0
 10
802.784175
 20
94.297560
 30
0.0
 10
837.295500
 20
96.779843
 30
0.0
 10
839.777775
 20
96.939870
 30
0.0
  0
SPLINE
  5
17a
100
AcDbEntity
  8
Waterline1
 62
5
100
AcDbSpline
 70
8
 71
3
 72
8
 73
4
 74
0
 40
0
 40
0
 40
0
 40
0
 40
1
 40
1
 40
1
 40
1
 10
839.777775
 20
96.939870
 30
0.0
 10
842.260050
 20
97.100040
 30
0.0
 10
843.339225
 20
98.578725
 30
0.0
 10
843.339225
 20
98.578725
 30
0.0
  0
SPLINE
  5
17b
100
AcDbEntity
  8
Waterline2
 62
5
100
AcDbSpline
 70
8
 71
3
 72
8
 73
4
 74
0
 40
0
 40
0
 40
0
 40
0
 40
1
 40
1
 40
1
 40
1
 10
48.457063
 20
98.174595
 30
0.0
 10
48.457063
 20
98.174595
 30
0.0
 10
306.974085
 20
140.084753
 30
0.0
 10
422.278717
 20
138.803542
 30
0.0
  0
SPLINE
  5
17c
100
AcDbEntity
  8
Waterline2
 62
5
100
AcDbSpline
 70
8
 71
3
 72
8
 73
4
 74
0
 40
0
 40
0
 40
0
 40
0
 40
1
 40
1
 40
1
 40
1
 10
422.278717
 20
138.803542
 30
0.0
 10
537.583477
 20
137.522325
 30
0.0
 10
643.384860
 20
123.928035
 30
0.0
 10
671.015295
 20
120.757418
 30
0.0
  0
SPLINE
  5
17d
100
AcDbEntity
  8
Waterline2
 62
5
100
AcDbSpline
 70
8
 71
3
 72
8
 73
4
 74
0
 40
0
 40
0
 40
0
 40
0
 40
1
 40
1
 40
1
 40
1
 10
671.015295
 20
120.757418
 30
0.0
 10
725.915415
 20
115.103745
 30
0.0
 10
757.160175
 20
107.635710
 30
0.0
 10
805.872525
 20
104.198873
 30
0.0
  0
SPLINE
  5
17e
100
AcDbEntity
  8
Waterline2
 62
5
100
AcDbSpline
 70
8
 71
3
 72
8
 73
4
 74
0
 40
0
 40
0
 40
0
 40
0
 40
1
 40
1
 40
1
 40
1
 10
805.872525
 20
104.198873
 30
0.0
 10
838.712100
 20
101.764268
 30
0.0
 10
857.585025
 20
99.290723
 30
0.0
 10
857.500650
 20
97.925340
 30
0.0
  0
SPLINE
  5
17f
100
AcDbEntity
  8
Waterline2
 62
5
100
AcDbSpline
 70
8
 71
3
 72
8
 73
4
 74
0
 40
0
 40
0
 40
0
 40
0
 40
1
 40
1
 40
1
 40
1
 10
48.457063
 20
98.174595
 30
0.0
 10
48.457063
 20
98.174595
 30
0.0
 10
306.974078
 20
55.765928
 30
0.0
 10
422.278710
 20
57.047137
 30
0.0
  0
SPLINE
  5
180
100
AcDbEntity
  8
Waterline2
 62
5
100
AcDbSpline
 70
8
 71
3
 72
8
 73
4
 74
0
 40
0
 40
0
 40
0
 40
0
 40
1
 40
1
 40
1
 40
1
 10
422.278710
 20
57.047137
 30
0.0
 10
537.583477
 20
58.328355
 30
0.0
 10
643.384852
 20
71.922645
 30
0.0
 10
671.015295
 20
75.093262
 30
0.0
  0
SPLINE
  5
181
100
AcDbEntity
  8
Waterline2
 62
5
100
AcDbSpline
 70
8
 71
3
 72
8
 73
4
 74
0
 40
0
 40
0
 40
0
 40
0
 40
1
 40
1
 40
1
 40
1
 10
671.015295
 20
75.093262
 30
0.0
 10
725.915408
 20
80.746935
 30
0.0
 10
757.160175
 20
88.214970
 30
0.0
 10
805.872525
 20
91.651807
 30
0.0
  0
SPLINE
  5
182
100
AcDbEntity
  8
Waterline2
 62
5
100
AcDbSpline
 70
8
 71
3
 72
8
 73
4
 74
0
 40
0
 40
0
 40
0
 40
0
 40
1
 40
1
 40
1
 40
1
 10
805.872525
 20
91.651807
 30
0.0
 10
838.712100
 20
94.086412
 30
0.0
 10
857.585025
 20
96.559957
 30
0.0
 10
857.500650
 20
97.925340
 30
0.0
  0
SPLINE
  5
183
100
AcDbEntity
  8
Waterline3
 62
5
100
AcDbSpline
 70
8
 71
3
 72
8
 73
4
 74
0
 40
0
 40
0
 40
0
 40
0
 40
1
 40
1
 40
1
 40
1
 10
874.922625
 20
98.227418
 30
0.0
 10
874.922625
 20
100.389345
 30
0.0
 10
845.126475
 20
101.943907
 30
0.0
 10
817.901775
 20
104.826525
 30
0.0
  0
SPLINE
  5
184
100
AcDbEntity
  8
Waterline3
 62
5
100
AcDbSpline
 70
8
 71
3
 72
8
 73
4
 74
0
 40
0
 40
0
 40
0
 40
0
 40
1
 40
1
 40
1
 40
1
 10
817.901775
 20
104.826525
 30
0.0
 10
790.400775
 20
107.738415
 30
0.0
 10
764.413200
 20
114.755475
 30
0.0
 10
735.876855
 20
119.083245
 30
0.0
  0
SPLINE
  5
185
100
AcDbEntity
  8
Waterline3
 62
5
100
AcDbSpline
 70
8
 71
3
 72
8
 73
4
 74
0
 40
0
 40
0
 40
0
 40
0
 40
1
 40
1
 40
1
 40
1
 10
735.876855
 20
119.083245
 30
0.0
 10
688.421010
 20
126.280215
 30
0.0
 10
506.053553
 20
157.134682
 30
0.0
 10
343.487205
 20
155.533267
 30
0.0
  0
SPLINE
  5
186
100
AcDbEntity
  8
Waterline3
 62
5
100
AcDbSpline
 70
8
 71
3
 72
8
 73
4
 74
0
 40
0
 40
0
 40
0
 40
0
 40
1
 40
1
 40
1
 40
1
 10
343.487205
 20
155.533267
 30
0.0
 10
275.211907
 20
155.374575
 30
0.0
 10
222.546098
 20
155.026448
 30
0.0
 10
5.420922
 20
131.893350
 30
0.0
  0
LWPOLYLINE
  5
187
100
AcDbEntity
  8
Centerline
 62
1
100
AcDbPolyline
 90
2
 70
0
 10
0.853308
 20
98.160915
 30
0.0
 10
937.049706
 20
98.160915
 30
0.0
  0
SPLINE
  5
188
100
AcDbEntity
  8
Waterline3
 62
5
100
AcDbSpline
 70
8
 71
3
 72
8
 73
4
 74
0
 40
0
 40
0
 40
0
 40
0
 40
1
 40
1
 40
1
 40
1
 10
874.922625
 20
98.227418
 30
0.0
 10
874.922625
 20
96.065490
 30
0.0
 10
845.126475
 20
94.510927
 30
0.0
 10
817.901700
 20
91.628310
 30
0.0
  0
SPLINE
  5
189
100
AcDbEntity
  8
Waterline3
 62
5
100
AcDbSpline
 70
8
 71
3
 72
8
 73
4
 74
0
 40
0
 40
0
 40
0
 40
0
 40
1
 40
1
 40
1
 40
1
 10
817.901700
 20
91.628310
 30
0.0
 10
790.400700
 20
88.716420
 30
0.0
 10
764.413125
 20
81.699360
 30
0.0
 10
735.876750
 20
77.371598
 30
0.0
  0
SPLINE
  5
18a
100
AcDbEntity
  8
Waterline3
 62
5
100
AcDbSpline
 70
8
 71
3
 72
8
 73
4
 74
0
 40
0
 40
0
 40
0
 40
0
 40
1
 40
1
 40
1
 40
1
 10
735.876750
 20
77.371598
 30
0.0
 10
688.420920
 20
70.174627
 30
0.0
 10
506.053462
 20
39.320160
 30
0.0
 10
343.487115
 20
40.921575
 30
0.0
  0
SPLINE
  5
18b
100
AcDbEntity
  8
Waterline3
 62
5
100
AcDbSpline
 70
8
 71
3
 72
8
 73
4
 74
0
 40
0
 40
0
 40
0
 40
0
 40
1
 40
1
 40
1
 40
1
 10
343.487115
 20
40.921575
 30
0.0
 10
275.211817
 20
41.080267
 30
0.0
 10
222.546007
 20
41.428395
 30
0.0
 10
5.420832
 20
64.561492
 30
0.0
  0
LWPOLYLINE
  5
18c
100
AcDbEntity
  8
Waterline3
 62
5
100
AcDbPolyline
 90
2
 70
0
 10
5.420922
 20
131.893350
 30
0.0
 10
5.420922
 20
98.288572
 30
0.0
  0
SPLINE
  5
18d
100
AcDbEntity
  8
Waterline4
 62
5
100
AcDbSpline
 70
8
 71
3
 72
8
 73
4
 74
0
 40
0
 40
0
 40
0
 40
0
 40
1
 40
1
 40
1
 40
1
 10
883.329750
 20
98.314140
 30
0.0
 10
883.312500
 20
99.712965
 30
0.0
 10
870.591750
 20
102.065940
 30
0.0
 10
855.191100
 20
103.198395
 30
0.0
  0
SPLINE
  5
18e
100
AcDbEntity
  8
Waterline4
 62
5
100
AcDbSpline
 70
8
 71
3
 72
8
 73
4
 74
0
 40
0
 40
0
 40
0
 40
0
 40
1
 40
1
 40
1
 40
1
 10
855.191100
 20
103.198395
 30
0.0
 10
839.790600
 20
104.330850
 30
0.0
 10
838.143975
 20
104.803567
 30
0.0
 10
822.411300
 20
107.656920
 30
0.0
  0
SPLINE
  5
18f
100
AcDbEntity
  8
Waterline4
 62
5
100
AcDbSpline
 70
8
 71
3
 72
8
 73
4
 74
0
 40
0
 40
0
 40
0
 40
0
 40
1
 40
1
 40
1
 40
1
 10
822.411300
 20
107.656920
 30
0.0
 10
803.453700
 20
111.095235
 30
0.0
 10
787.169850
 20
116.834715
 30
0.0
 10
741.288345
 20
123.789608
 30
0.0
  0
SPLINE
  5
190
100
AcDbEntity
  8
Waterline4
 62
5
100
AcDbSpline
 70
8
 71
3
 72
8
 73
4
 74
0
 40
0
 40
0
 40
0
 40
0
 40
1
 40
1
 40
1
 40
1
 10
741.288345
 20
123.789608
 30
0.0
 10
694.034145
 20
130.952610
 30
0.0
 10
624.702517
 20
144.288195
 30
0.0
 10
558.082042
 20
151.975192
 30
0.0
  0
SPLINE
  5
191
100
AcDbEntity
  8
Waterline4
 62
5
100
AcDbSpline
 70
8
 71
3
 72
8
 73
4
 74
0
 40
0
 40
0
 40
0
 40
0
 40
1
 40
1
 40
1
 40
1
 10
558.082042
 20
151.975192
 30
0.0
 10
491.461590
 20
159.662197
 30
0.0
 10
432.528000
 20
164.786783
 30
0.0
 10
347.971245
 20
164.786783
 30
0.0
  0
SPLINE
  5
192
100
AcDbEntity
  8
Waterline4
 62
5
100
AcDbSpline
 70
8
 71
3
 72
8
 73
4
 74
0
 40
0
 40
0
 40
0
 40
0
 40
1
 40
1
 40
1
 40
1
 10
347.971245
 20
164.786783
 30
0.0
 10
263.414505
 20
164.786783
 30
0.0
 10
5.420922
 20
150.590205
 30
0.0
 10
5.420922
 20
150.590205
 30
0.0
  0
LWPOLYLINE
  5
193
100
AcDbEntity
  8
Waterline3
 62
5
100
AcDbPolyline
 90
2
 70
0
 10
5.420832
 20
64.561492
 30
0.0
 10
5.420922
 20
98.288572
 30
0.0
  0
SPLINE
  5
194
100
AcDbEntity
  8
Waterline4
 62
5
100
AcDbSpline
 70
8
 71
3
 72
8
 73
4
 74
0
 40
0
 40
0
 40
0
 40
0
 40
1
 40
1
 40
1
 40
1
 10
883.329750
 20
98.314140
 30
0.0
 10
883.312500
 20
96.915315
 30
0.0
 10
870.591750
 20
94.562340
 30
0.0
 10
855.191100
 20
93.429885
 30
0.0
  0
SPLINE
  5
195
100
AcDbEntity
  8
Waterline4
 62
5
100
AcDbSpline
 70
8
 71
3
 72
8
 73
4
 74
0
 40
0
 40
0
 40
0
 40
0
 40
1
 40
1
 40
1
 40
1
 10
855.191100
 20
93.429885
 30
0.0
 10
839.790600
 20
92.297430
 30
0.0
 10
838.143975
 20
91.824713
 30
0.0
 10
822.411300
 20
88.971360
 30
0.0
  0
SPLINE
  5
196
100
AcDbEntity
  8
Waterline4
 62
5
100
AcDbSpline
 70
8
 71
3
 72
8
 73
4
 74
0
 40
0
 40
0
 40
0
 40
0
 40
1
 40
1
 40
1
 40
1
 10
822.411300
 20
88.971360
 30
0.0
 10
803.453700
 20
85.533045
 30
0.0
 10
787.169850
 20
79.793565
 30
0.0
 10
741.288345
 20
72.838672
 30
0.0
  0
SPLINE
  5
197
100
AcDbEntity
  8
Waterline4
 62
5
100
AcDbSpline
 70
8
 71
3
 72
8
 73
4
 74
0
 40
0
 40
0
 40
0
 40
0
 40
1
 40
1
 40
1
 40
1
 10
741.288345
 20
72.838672
 30
0.0
 10
694.034145
 20
65.675670
 30
0.0
 10
624.702525
 20
52.340092
 30
0.0
 10
558.082035
 20
44.653095
 30
0.0
  0
SPLINE
  5
198
100
AcDbEntity
  8
Waterline4
 62
5
100
AcDbSpline
 70
8
 71
3
 72
8
 73
4
 74
0
 40
0
 40
0
 40
0
 40
0
 40
1
 40
1
 40
1
 40
1
 10
558.082035
 20
44.653095
 30
0.0
 10
491.461582
 20
36.966090
 30
0.0
 10
432.528007
 20
31.841505
 30
0.0
 10
347.971252
 20
31.841505
 30
0.0
  0
SPLINE
  5
199
100
AcDbEntity
  8
Waterline4
 62
5
100
AcDbSpline
 70
8
 71
3
 72
8
 73
4
 74
0
 40
0
 40
0
 40
0
 40
0
 40
1
 40
1
 40
1
 40
1
 10
347.971252
 20
31.841505
 30
0.0
 10
263.414512
 20
31.841505
 30
0.0
 10
5.420925
 20
46.038082
 30
0.0
 10
5.420925
 20
46.038082
 30
0.0
  0
LWPOLYLINE
  5
19a
100
AcDbEntity
  8
Waterline4
 62
5
100
AcDbPolyline
 90
2
 70
0
 10
5.420922
 20
150.590205
 30
0.0
 10
5.420922
 20
98.288572
 30
0.0
  0
SPLINE
  5
19b
100
AcDbEntity
  8
Waterline5
 62
5
100
AcDbSpline
 70
8
 71
3
 72
8
 73
4
 74
0
 40
0
 40
0
 40
0
 40
0
 40
1
 40
1
 40
1
 40
1
 10
891.526125
 20
98.115983
 30
0.0
 10
891.658425
 20
101.529443
 30
0.0
 10
871.404150
 20
104.928427
 30
0.0
 10
843.406050
 20
110.505990
 30
0.0
  0
SPLINE
  5
19c
100
AcDbEntity
  8
Waterline5
 62
5
100
AcDbSpline
 70
8
 71
3
 72
8
 73
4
 74
0
 40
0
 40
0
 40
0
 40
0
 40
1
 40
1
 40
1
 40
1
 10
843.406050
 20
110.505990
 30
0.0
 10
815.928450
 20
115.980045
 30
0.0
 10
779.082675
 20
124.223663
 30
0.0
 10
725.914470
 20
133.832288
 30
0.0
  0
SPLINE
  5
19d
100
AcDbEntity
  8
Waterline5
 62
5
100
AcDbSpline
 70
8
 71
3
 72
8
 73
4
 74
0
 40
0
 40
0
 40
0
 40
0
 40
1
 40
1
 40
1
 40
1
 10
725.914470
 20
133.832288
 30
0.0
 10
672.746130
 20
143.441033
 30
0.0
 10
554.466120
 20
158.737305
 30
0.0
 10
531.818220
 20
160.096117
 30
0.0
  0
SPLINE
  5
19e
100
AcDbEntity
  8
Waterline5
 62
5
100
AcDbSpline
 70
8
 71
3
 72
8
 73
4
 74
0
 40
0
 40
0
 40
0
 40
0
 40
1
 40
1
 40
1
 40
1
 10
531.818220
 20
160.096117
 30
0.0
 10
509.170185
 20
162.361028
 30
0.0
 10
476.599372
 20
165.486120
 30
0.0
 10
367.829288
 20
167.783115
 30
0.0
  0
SPLINE
  5
19f
100
AcDbEntity
  8
Waterline5
 62
5
100
AcDbSpline
 70
8
 71
3
 72
8
 73
4
 74
0
 40
0
 40
0
 40
0
 40
0
 40
1
 40
1
 40
1
 40
1
 10
367.829288
 20
167.783115
 30
0.0
 10
271.710082
 20
169.812943
 30
0.0
 10
5.420922
 20
154.041952
 30
0.0
 10
5.420922
 20
154.041952
 30
0.0
  0
LWPOLYLINE
  5
1a0
100
AcDbEntity
  8
Waterline4
 62
5
100
AcDbPolyline
 90
2
 70
0
 10
5.420925
 20
46.038082
 30
0.0
 10
5.420922
 20
98.288572
 30
0.0
  0
SPLINE
  5
1a1
100
AcDbEntity
  8
Waterline5
 62
5
100
AcDbSpline
 70
8
 71
3
 72
8
 73
4
 74
0
 40
0
 40
0
 40
0
 40
0
 40
1
 40
1
 40
1
 40
1
 10
891.526125
 20
98.115983
 30
0.0
 10
891.658425
 20
94.702523
 30
0.0
 10
871.404150
 20
91.303538
 30
0.0
 10
843.406050
 20
85.725975
 30
0.0
  0
SPLINE
  5
1a2
100
AcDbEntity
  8
Waterline5
 62
5
100
AcDbSpline
 70
8
 71
3
 72
8
 73
4
 74
0
 40
0
 40
0
 40
0
 40
0
 40
1
 40
1
 40
1
 40
1
 10
843.406050
 20
85.725975
 30
0.0
 10
815.928450
 20
80.251920
 30
0.0
 10
779.082675
 20
72.008303
 30
0.0
 10
725.914500
 20
62.399678
 30
0.0
  0
SPLINE
  5
1a3
100
AcDbEntity
  8
Waterline5
 62
5
100
AcDbSpline
 70
8
 71
3
 72
8
 73
4
 74
0
 40
0
 40
0
 40
0
 40
0
 40
1
 40
1
 40
1
 40
1
 10
725.914500
 20
62.399678
 30
0.0
 10
672.746070
 20
52.790933
 30
0.0
 10
554.466120
 20
37.494660
 30
0.0
 10
531.818220
 20
36.135848
 30
0.0
  0
SPLINE
  5
1a4
100
AcDbEntity
  8
Waterline5
 62
5
100
AcDbSpline
 70
8
 71
3
 72
8
 73
4
 74
0
 40
0
 40
0
 40
0
 40
0
 40
1
 40
1
 40
1
 40
1
 10
531.818220
 20
36.135848
 30
0.0
 10
509.170170
 20
33.870938
 30
0.0
 10
476.599350
 20
30.745845
 30
0.0
 10
367.829265
 20
28.448850
 30
0.0
  0
SPLINE
  5
1a5
100
AcDbEntity
  8
Waterline5
 62
5
100
AcDbSpline
 70
8
 71
3
 72
8
 73
4
 74
0
 40
0
 40
0
 40
0
 40
0
 40
1
 40
1
 40
1
 40
1
 10
367.829265
 20
28.448850
 30
0.0
 10
271.710045
 20
26.419020
 30
0.0
 10
5.420894
 20
42.190013
 30
0.0
 10
5.420894
 20
42.190013
 30
0.0
  0
LWPOLYLINE
  5
1a6
100
AcDbEntity
  8
Waterline5
 62
5
100
AcDbPolyline
 90
2
 70
0
 10
5.420922
 20
154.041952
 30
0.0
 10
5.420922
 20
98.288572
 30
0.0
  0
SPLINE
  5
1a7
100
AcDbEntity
  8
Waterline6
 62
5
100
AcDbSpline
 70
8
 71
3
 72
8
 73
4
 74
0
 40
0
 40
0
 40
0
 40
0
 40
1
 40
1
 40
1
 40
1
 10
899.721450
 20
98.149545
 30
0.0
 10
899.770200
 20
101.276782
 30
0.0
 10
863.161575
 20
109.919153
 30
0.0
 10
812.430000
 20
121.696147
 30
0.0
  0
SPLINE
  5
1a8
100
AcDbEntity
  8
Waterline6
 62
5
100
AcDbSpline
 70
8
 71
3
 72
8
 73
4
 74
0
 40
0
 40
0
 40
0
 40
0
 40
1
 40
1
 40
1
 40
1
 10
812.430000
 20
121.696147
 30
0.0
 10
761.698575
 20
133.473007
 30
0.0
 10
729.222150
 20
140.985750
 30
0.0
 10
666.046455
 20
150.310282
 30
0.0
  0
SPLINE
  5
1a9
100
AcDbEntity
  8
Waterline6
 62
5
100
AcDbSpline
 70
8
 71
3
 72
8
 73
4
 74
0
 40
0
 40
0
 40
0
 40
0
 40
1
 40
1
 40
1
 40
1
 10
666.046455
 20
150.310282
 30
0.0
 10
588.344445
 20
161.778892
 30
0.0
 10
512.854995
 20
168.803873
 30
0.0
 10
375.155287
 20
169.709836
 30
0.0
  0
SPLINE
  5
1aa
100
AcDbEntity
  8
Waterline6
 62
5
100
AcDbSpline
 70
8
 71
3
 72
8
 73
4
 74
0
 40
0
 40
0
 40
0
 40
0
 40
1
 40
1
 40
1
 40
1
 10
375.155287
 20
169.709836
 30
0.0
 10
237.455565
 20
170.615798
 30
0.0
 10
5.420922
 20
155.037053
 30
0.0
 10
5.420922
 20
155.037053
 30
0.0
  0
LWPOLYLINE
  5
1ab
100
AcDbEntity
  8
Waterline5
 62
5
100
AcDbPolyline
 90
2
 70
0
 10
5.420894
 20
42.190013
 30
0.0
 10
5.420922
 20
98.288573
 30
0.0
  0
SPLINE
  5
1ac
100
AcDbEntity
  8
Waterline6
 62
5
100
AcDbSpline
 70
8
 71
3
 72
8
 73
4
 74
0
 40
0
 40
0
 40
0
 40
0
 40
1
 40
1
 40
1
 40
1
 10
899.721450
 20
98.149545
 30
0.0
 10
899.770200
 20
95.022308
 30
0.0
 10
863.161575
 20
86.379937
 30
0.0
 10
812.430000
 20
74.602943
 30
0.0
  0
SPLINE
  5
1ad
100
AcDbEntity
  8
Waterline6
 62
5
100
AcDbSpline
 70
8
 71
3
 72
8
 73
4
 74
0
 40
0
 40
0
 40
0
 40
0
 40
1
 40
1
 40
1
 40
1
 10
812.430000
 20
74.602943
 30
0.0
 10
761.698575
 20
62.826083
 30
0.0
 10
729.222120
 20
55.313340
 30
0.0
 10
666.046425
 20
45.988808
 30
0.0
  0
SPLINE
  5
1ae
100
AcDbEntity
  8
Waterline6
 62
5
100
AcDbSpline
 70
8
 71
3
 72
8
 73
4
 74
0
 40
0
 40
0
 40
0
 40
0
 40
1
 40
1
 40
1
 40
1
 10
666.046425
 20
45.988808
 30
0.0
 10
588.344415
 20
34.520197
 30
0.0
 10
512.854957
 20
27.495217
 30
0.0
 10
375.155242
 20
26.589255
 30
0.0
  0
SPLINE
  5
1af
100
AcDbEntity
  8
Waterline6
 62
5
100
AcDbSpline
 70
8
 71
3
 72
8
 73
4
 74
0
 40
0
 40
0
 40
0
 40
0
 40
1
 40
1
 40
1
 40
1
 10
375.155242
 20
26.589255
 30
0.0
 10
237.455535
 20
25.683292
 30
0.0
 10
5.420878
 20
41.262038
 30
0.0
 10
5.420878
 20
41.262038
 30
0.0
  0
LWPOLYLINE
  5
1b0
100
AcDbEntity
  8
Waterline6
 62
5
100
AcDbPolyline
 90
2
 70
0
 10
5.420922
 20
155.037053
 30
0.0
 10
5.420922
 20
98.288572
 30
0.0
  0
SPLINE
  5
1b1
100
AcDbEntity
  8
Waterline7
 62
5
100
AcDbSpline
 70
8
 71
3
 72
8
 73
4
 74
0
 40
0
 40
0
 40
0
 40
0
 40
1
 40
1
 40
1
 40
1
 10
907.913250
 20
98.103097
 30
0.0
 10
907.826925
 20
102.439718
 30
0.0
 10
899.351775
 20
103.695405
 30
0.0
 10
887.981475
 20
106.738080
 30
0.0
  0
SPLINE
  5
1b2
100
AcDbEntity
  8
Waterline7
 62
5
100
AcDbSpline
 70
8
 71
3
 72
8
 73
4
 74
0
 40
0
 40
0
 40
0
 40
0
 40
1
 40
1
 40
1
 40
1
 10
887.981475
 20
106.738080
 30
0.0
 10
876.611325
 20
109.780882
 30
0.0
 10
836.812050
 20
121.474477
 30
0.0
 10
799.669425
 20
130.533592
 30
0.0
  0
SPLINE
  5
1b3
100
AcDbEntity
  8
Waterline7
 62
5
100
AcDbSpline
 70
8
 71
3
 72
8
 73
4
 74
0
 40
0
 40
0
 40
0
 40
0
 40
1
 40
1
 40
1
 40
1
 10
799.669425
 20
130.533592
 30
0.0
 10
762.526800
 20
139.592842
 30
0.0
 10
743.053395
 20
144.927922
 30
0.0
 10
673.746742
 20
155.446410
 30
0.0
  0
SPLINE
  5
1b4
100
AcDbEntity
  8
Waterline7
 62
5
100
AcDbSpline
 70
8
 71
3
 72
8
 73
4
 74
0
 40
0
 40
0
 40
0
 40
0
 40
1
 40
1
 40
1
 40
1
 10
673.746742
 20
155.446410
 30
0.0
 10
591.067575
 20
167.994442
 30
0.0
 10
464.172442
 20
171.542577
 30
0.0
 10
366.187200
 20
170.846994
 30
0.0
  0
SPLINE
  5
1b5
100
AcDbEntity
  8
Waterline7
 62
5
100
AcDbSpline
 70
8
 71
3
 72
8
 73
4
 74
0
 40
0
 40
0
 40
0
 40
0
 40
1
 40
1
 40
1
 40
1
 10
366.187200
 20
170.846994
 30
0.0
 10
260.193413
 20
170.094613
 30
0.0
 10
195.033128
 20
167.659463
 30
0.0
 10
5.420922
 20
155.488425
 30
0.0
  0
LWPOLYLINE
  5
1b6
100
AcDbEntity
  8
Waterline6
 62
5
100
AcDbPolyline
 90
2
 70
0
 10
5.420878
 20
41.262038
 30
0.0
 10
5.420922
 20
98.288573
 30
0.0
  0
SPLINE
  5
1b7
100
AcDbEntity
  8
Waterline7
 62
5
100
AcDbSpline
 70
8
 71
3
 72
8
 73
4
 74
0
 40
0
 40
0
 40
0
 40
0
 40
1
 40
1
 40
1
 40
1
 10
907.913250
 20
98.103097
 30
0.0
 10
907.826925
 20
93.766477
 30
0.0
 10
899.351775
 20
92.510790
 30
0.0
 10
887.981475
 20
89.468115
 30
0.0
  0
SPLINE
  5
1b8
100
AcDbEntity
  8
Waterline7
 62
5
100
AcDbSpline
 70
8
 71
3
 72
8
 73
4
 74
0
 40
0
 40
0
 40
0
 40
0
 40
1
 40
1
 40
1
 40
1
 10
887.981475
 20
89.468115
 30
0.0
 10
876.611325
 20
86.425312
 30
0.0
 10
836.812050
 20
74.731718
 30
0.0
 10
799.669425
 20
65.672602
 30
0.0
  0
SPLINE
  5
1b9
100
AcDbEntity
  8
Waterline7
 62
5
100
AcDbSpline
 70
8
 71
3
 72
8
 73
4
 74
0
 40
0
 40
0
 40
0
 40
0
 40
1
 40
1
 40
1
 40
1
 10
799.669425
 20
65.672602
 30
0.0
 10
762.526800
 20
56.613352
 30
0.0
 10
743.053380
 20
51.278272
 30
0.0
 10
673.746720
 20
40.759785
 30
0.0
  0
SPLINE
  5
1ba
100
AcDbEntity
  8
Waterline7
 62
5
100
AcDbSpline
 70
8
 71
3
 72
8
 73
4
 74
0
 40
0
 40
0
 40
0
 40
0
 40
1
 40
1
 40
1
 40
1
 10
673.746720
 20
40.759785
 30
0.0
 10
591.067560
 20
28.211753
 30
0.0
 10
464.172413
 20
24.663615
 30
0.0
 10
366.187162
 20
25.359203
 30
0.0
  0
SPLINE
  5
1bb
100
AcDbEntity
  8
Waterline7
 62
5
100
AcDbSpline
 70
8
 71
3
 72
8
 73
4
 74
0
 40
0
 40
0
 40
0
 40
0
 40
1
 40
1
 40
1
 40
1
 10
366.187162
 20
25.359203
 30
0.0
 10
260.193382
 20
26.111580
 30
0.0
 10
195.033097
 20
28.546733
 30
0.0
 10
5.420886
 20
40.717770
 30
0.0
  0
LWPOLYLINE
  5
1bc
100
AcDbEntity
  8
Waterline7
 62
5
100
AcDbPolyline
 90
2
 70
0
 10
5.420922
 20
155.488425
 30
0.0
 10
5.420922
 20
97.978515
 30
0.0
  0
SPLINE
  5
1bd
100
AcDbEntity
  8
Waterline8
 62
5
100
AcDbSpline
 70
8
 71
3
 72
8
 73
4
 74
0
 40
0
 40
0
 40
0
 40
0
 40
1
 40
1
 40
1
 40
1
 10
916.104975
 20
98.089395
 30
0.0
 10
916.104975
 20
102.166095
 30
0.0
 10
882.138600
 20
113.359747
 30
0.0
 10
859.077600
 20
121.046745
 30
0.0
  0
SPLINE
  5
1be
100
AcDbEntity
  8
Waterline8
 62
5
100
AcDbSpline
 70
8
 71
3
 72
8
 73
4
 74
0
 40
0
 40
0
 40
0
 40
0
 40
1
 40
1
 40
1
 40
1
 10
859.077600
 20
121.046745
 30
0.0
 10
836.016750
 20
128.733750
 30
0.0
 10
784.409025
 20
144.612953
 30
0.0
 10
731.039055
 20
154.466873
 30
0.0
  0
SPLINE
  5
1bf
100
AcDbEntity
  8
Waterline8
 62
5
100
AcDbSpline
 70
8
 71
3
 72
8
 73
4
 74
0
 40
0
 40
0
 40
0
 40
0
 40
1
 40
1
 40
1
 40
1
 10
731.039055
 20
154.466873
 30
0.0
 10
676.964880
 20
164.450865
 30
0.0
 10
578.587342
 20
170.106163
 30
0.0
 10
446.323283
 20
171.723685
 30
0.0
  0
SPLINE
  5
1c0
100
AcDbEntity
  8
Waterline8
 62
5
100
AcDbSpline
 70
8
 71
3
 72
8
 73
4
 74
0
 40
0
 40
0
 40
0
 40
0
 40
1
 40
1
 40
1
 40
1
 10
446.323283
 20
171.723685
 30
0.0
 10
315.615255
 20
173.322281
 30
0.0
 10
189.775515
 20
167.449493
 30
0.0
 10
5.420922
 20
155.446005
 30
0.0
  0
LWPOLYLINE
  5
1c1
100
AcDbEntity
  8
Waterline7
 62
5
100
AcDbPolyline
 90
2
 70
0
 10
5.420886
 20
40.717770
 30
0.0
 10
5.420922
 20
97.978515
 30
0.0
  0
SPLINE
  5
1c2
100
AcDbEntity
  8
Waterline8
 62
5
100
AcDbSpline
 70
8
 71
3
 72
8
 73
4
 74
0
 40
0
 40
0
 40
0
 40
0
 40
1
 40
1
 40
1
 40
1
 10
916.104975
 20
98.089395
 30
0.0
 10
916.104975
 20
94.012695
 30
0.0
 10
882.138600
 20
82.819043
 30
0.0
 10
859.077600
 20
75.132045
 30
0.0
  0
SPLINE
  5
1c3
100
AcDbEntity
  8
Waterline8
 62
5
100
AcDbSpline
 70
8
 71
3
 72
8
 73
4
 74
0
 40
0
 40
0
 40
0
 40
0
 40
1
 40
1
 40
1
 40
1
 10
859.077600
 20
75.132045
 30
0.0
 10
836.016675
 20
67.445040
 30
0.0
 10
784.408950
 20
51.565838
 30
0.0
 10
731.038973
 20
41.711917
 30
0.0
  0
SPLINE
  5
1c4
100
AcDbEntity
  8
Waterline8
 62
5
100
AcDbSpline
 70
8
 71
3
 72
8
 73
4
 74
0
 40
0
 40
0
 40
0
 40
0
 40
1
 40
1
 40
1
 40
1
 10
731.038973
 20
41.711917
 30
0.0
 10
676.964790
 20
31.727925
 30
0.0
 10
578.587238
 20
26.072625
 30
0.0
 10
446.323185
 20
24.455100
 30
0.0
  0
SPLINE
  5
1c5
100
AcDbEntity
  8
Waterline8
 62
5
100
AcDbSpline
 70
8
 71
3
 72
8
 73
4
 74
0
 40
0
 40
0
 40
0
 40
0
 40
1
 40
1
 40
1
 40
1
 10
446.323185
 20
24.455100
 30
0.0
 10
315.615165
 20
22.856505
 30
0.0
 10
189.775418
 20
28.729297
 30
0.0
 10
5.420829
 20
40.732785
 30
0.0
  0
LWPOLYLINE
  5
1c6
100
AcDbEntity
  8
Waterline8
 62
5
100
AcDbPolyline
 90
2
 70
0
 10
5.420922
 20
155.446005
 30
0.0
 10
5.420922
 20
98.221552
 30
0.0
  0
SPLINE
  5
1c7
100
AcDbEntity
  8
Waterline9
 62
5
100
AcDbSpline
 70
8
 71
3
 72
8
 73
4
 74
0
 40
0
 40
0
 40
0
 40
0
 40
1
 40
1
 40
1
 40
1
 10
924.296850
 20
98.094758
 30
0.0
 10
924.355350
 20
105.478215
 30
0.0
 10
882.787500
 20
120.507315
 30
0.0
 10
866.933925
 20
126.169313
 30
0.0
  0
SPLINE
  5
1c8
100
AcDbEntity
  8
Waterline9
 62
5
100
AcDbSpline
 70
8
 71
3
 72
8
 73
4
 74
0
 40
0
 40
0
 40
0
 40
0
 40
1
 40
1
 40
1
 40
1
 10
866.933925
 20
126.169313
 30
0.0
 10
851.080350
 20
131.831318
 30
0.0
 10
815.523000
 20
144.061305
 30
0.0
 10
798.990075
 20
148.364362
 30
0.0
  0
SPLINE
  5
1c9
100
AcDbEntity
  8
Waterline9
 62
5
100
AcDbSpline
 70
8
 71
3
 72
8
 73
4
 74
0
 40
0
 40
0
 40
0
 40
0
 40
1
 40
1
 40
1
 40
1
 10
798.990075
 20
148.364362
 30
0.0
 10
782.457075
 20
152.667420
 30
0.0
 10
748.711523
 20
161.047192
 30
0.0
 10
716.324925
 20
164.897408
 30
0.0
  0
SPLINE
  5
1ca
100
AcDbEntity
  8
Waterline9
 62
5
100
AcDbSpline
 70
8
 71
3
 72
8
 73
4
 74
0
 40
0
 40
0
 40
0
 40
0
 40
1
 40
1
 40
1
 40
1
 10
716.324925
 20
164.897408
 30
0.0
 10
683.938313
 20
168.747479
 30
0.0
 10
614.862030
 20
169.879942
 30
0.0
 10
582.022433
 20
171.691733
 30
0.0
  0
SPLINE
  5
1cb
100
AcDbEntity
  8
Waterline9
 62
5
100
AcDbSpline
 70
8
 71
3
 72
8
 73
4
 74
0
 40
0
 40
0
 40
0
 40
0
 40
1
 40
1
 40
1
 40
1
 10
582.022433
 20
171.691733
 30
0.0
 10
549.182843
 20
173.503658
 30
0.0
 10
439.793183
 20
173.050678
 30
0.0
 10
401.065088
 20
173.050678
 30
0.0
  0
SPLINE
  5
1cc
100
AcDbEntity
  8
Waterline9
 62
5
100
AcDbSpline
 70
8
 71
3
 72
8
 73
4
 74
0
 40
0
 40
0
 40
0
 40
0
 40
1
 40
1
 40
1
 40
1
 10
401.065088
 20
173.050678
 30
0.0
 10
362.336993
 20
173.050678
 30
0.0
 10
266.989088
 20
167.841653
 30
0.0
 10
235.281818
 20
168.521122
 30
0.0
  0
SPLINE
  5
1cd
100
AcDbEntity
  8
Waterline9
 62
5
100
AcDbSpline
 70
8
 71
3
 72
8
 73
4
 74
0
 40
0
 40
0
 40
0
 40
0
 40
1
 40
1
 40
1
 40
1
 10
235.281818
 20
168.521122
 30
0.0
 10
203.574675
 20
169.200469
 30
0.0
 10
5.420922
 20
155.480108
 30
0.0
 10
5.420922
 20
155.480108
 30
0.0
  0
LWPOLYLINE
  5
1ce
100
AcDbEntity
  8
Waterline8
 62
5
100
AcDbPolyline
 90
2
 70
0
 10
5.420829
 20
40.732785
 30
0.0
 10
5.420922
 20
98.221553
 30
0.0
  0
SPLINE
  5
1cf
100
AcDbEntity
  8
Waterline9
 62
5
100
AcDbSpline
 70
8
 71
3
 72
8
 73
4
 74
0
 40
0
 40
0
 40
0
 40
0
 40
1
 40
1
 40
1
 40
1
 10
924.296850
 20
98.094758
 30
0.0
 10
924.355350
 20
90.711300
 30
0.0
 10
882.787500
 20
75.682200
 30
0.0
 10
866.933925
 20
70.020195
 30
0.0
  0
SPLINE
  5
1d0
100
AcDbEntity
  8
Waterline9
 62
5
100
AcDbSpline
 70
8
 71
3
 72
8
 73
4
 74
0
 40
0
 40
0
 40
0
 40
0
 40
1
 40
1
 40
1
 40
1
 10
866.933925
 20
70.020195
 30
0.0
 10
851.080350
 20
64.358190
 30
0.0
 10
815.523000
 20
52.128203
 30
0.0
 10
798.990075
 20
47.825145
 30
0.0
  0
SPLINE
  5
1d1
100
AcDbEntity
  8
Waterline9
 62
5
100
AcDbSpline
 70
8
 71
3
 72
8
 73
4
 74
0
 40
0
 40
0
 40
0
 40
0
 40
1
 40
1
 40
1
 40
1
 10
798.990075
 20
47.825145
 30
0.0
 10
782.457075
 20
43.522087
 30
0.0
 10
748.711508
 20
35.142315
 30
0.0
 10
716.324895
 20
31.292100
 30
0.0
  0
SPLINE
  5
1d2
100
AcDbEntity
  8
Waterline9
 62
5
100
AcDbSpline
 70
8
 71
3
 72
8
 73
4
 74
0
 40
0
 40
0
 40
0
 40
0
 40
1
 40
1
 40
1
 40
1
 10
716.324895
 20
31.292100
 30
0.0
 10
683.938290
 20
27.442028
 30
0.0
 10
614.862000
 20
26.309565
 30
0.0
 10
582.022395
 20
24.497775
 30
0.0
  0
SPLINE
  5
1d3
100
AcDbEntity
  8
Waterline9
 62
5
100
AcDbSpline
 70
8
 71
3
 72
8
 73
4
 74
0
 40
0
 40
0
 40
0
 40
0
 40
1
 40
1
 40
1
 40
1
 10
582.022395
 20
24.497775
 30
0.0
 10
549.182820
 20
22.685850
 30
0.0
 10
439.793153
 20
23.138835
 30
0.0
 10
401.065058
 20
23.138835
 30
0.0
  0
SPLINE
  5
1d4
100
AcDbEntity
  8
Waterline9
 62
5
100
AcDbSpline
 70
8
 71
3
 72
8
 73
4
 74
0
 40
0
 40
0
 40
0
 40
0
 40
1
 40
1
 40
1
 40
1
 10
401.065058
 20
23.138835
 30
0.0
 10
362.336970
 20
23.138835
 30
0.0
 10
266.989065
 20
28.347855
 30
0.0
 10
235.281788
 20
27.668385
 30
0.0
  0
SPLINE
  5
1d5
100
AcDbEntity
  8
Waterline9
 62
5
100
AcDbSpline
 70
8
 71
3
 72
8
 73
4
 74
0
 40
0
 40
0
 40
0
 40
0
 40
1
 40
1
 40
1
 40
1
 10
235.281788
 20
27.668385
 30
0.0
 10
203.574645
 20
26.989042
 30
0.0
 10
5.420922
 20
40.743735
 30
0.0
 10
5.420922
 20
40.743735
 30
0.0
  0
LWPOLYLINE
  5
1d6
100
AcDbEntity
  8
Waterline9
 62
5
100
AcDbPolyline
 90
2
 70
0
 10
5.420922
 20
155.480108
 30
0.0
 10
5.420922
 20
98.111925
 30
0.0
  0
SPLINE
  5
1d7
100
AcDbEntity
  8
Waterline10
 62
5
100
AcDbSpline
 70
8
 71
3
 72
8
 73
4
 74
0
 40
0
 40
0
 40
0
 40
0
 40
1
 40
1
 40
1
 40
1
 10
932.488650
 20
98.161747
 30
0.0
 10
931.714650
 20
105.451890
 30
0.0
 10
927.547050
 20
107.569530
 30
0.0
 10
920.383125
 20
110.809012
 30
0.0
  0
SPLINE
  5
1d8
100
AcDbEntity
  8
Waterline10
 62
5
100
AcDbSpline
 70
8
 71
3
 72
8
 73
4
 74
0
 40
0
 40
0
 40
0
 40
0
 40
1
 40
1
 40
1
 40
1
 10
920.383125
 20
110.809012
 30
0.0
 10
913.956225
 20
113.984573
 30
0.0
 10
881.655150
 20
129.153975
 30
0.0
 10
869.425200
 20
133.910017
 30
0.0
  0
SPLINE
  5
1d9
100
AcDbEntity
  8
Waterline10
 62
5
100
AcDbSpline
 70
8
 71
3
 72
8
 73
4
 74
0
 40
0
 40
0
 40
0
 40
0
 40
1
 40
1
 40
1
 40
1
 10
869.425200
 20
133.910017
 30
0.0
 10
857.195325
 20
138.666060
 30
0.0
 10
814.164225
 20
154.293142
 30
0.0
 10
801.028425
 20
157.916865
 30
0.0
  0
SPLINE
  5
1da
100
AcDbEntity
  8
Waterline10
 62
5
100
AcDbSpline
 70
8
 71
3
 72
8
 73
4
 74
0
 40
0
 40
0
 40
0
 40
0
 40
1
 40
1
 40
1
 40
1
 10
801.028425
 20
157.916865
 30
0.0
 10
787.892550
 20
161.540580
 30
0.0
 10
753.241050
 20
169.693859
 30
0.0
 10
741.237720
 20
171.052669
 30
0.0
  0
SPLINE
  5
1db
100
AcDbEntity
  8
Waterline10
 62
5
100
AcDbSpline
 70
8
 71
3
 72
8
 73
4
 74
0
 40
0
 40
0
 40
0
 40
0
 40
1
 40
1
 40
1
 40
1
 10
741.237720
 20
171.052669
 30
0.0
 10
729.234232
 20
172.411622
 30
0.0
 10
705.906862
 20
173.996922
 30
0.0
 10
678.955770
 20
173.996922
 30
0.0
  0
SPLINE
  5
1dc
100
AcDbEntity
  8
Waterline10
 62
5
100
AcDbSpline
 70
8
 71
3
 72
8
 73
4
 74
0
 40
0
 40
0
 40
0
 40
0
 40
1
 40
1
 40
1
 40
1
 10
678.955770
 20
173.996922
 30
0.0
 10
652.004685
 20
173.996922
 30
0.0
 10
484.183125
 20
174.449904
 30
0.0
 10
422.354167
 20
173.543941
 30
0.0
  0
SPLINE
  5
1dd
100
AcDbEntity
  8
Waterline10
 62
5
100
AcDbSpline
 70
8
 71
3
 72
8
 73
4
 74
0
 40
0
 40
0
 40
0
 40
0
 40
1
 40
1
 40
1
 40
1
 10
422.354167
 20
173.543941
 30
0.0
 10
360.525195
 20
172.638104
 30
0.0
 10
240.037995
 20
169.014387
 30
0.0
 10
213.539753
 20
167.655442
 30
0.0
  0
SPLINE
  5
1de
100
AcDbEntity
  8
Waterline10
 62
5
100
AcDbSpline
 70
8
 71
3
 72
8
 73
4
 74
0
 40
0
 40
0
 40
0
 40
0
 40
1
 40
1
 40
1
 40
1
 10
213.539753
 20
167.655442
 30
0.0
 10
187.041630
 20
166.296623
 30
0.0
 10
5.420922
 20
155.546963
 30
0.0
 10
5.420922
 20
155.546963
 30
0.0
  0
LWPOLYLINE
  5
1df
100
AcDbEntity
  8
Waterline9
 62
5
100
AcDbPolyline
 90
2
 70
0
 10
5.420922
 20
40.743735
 30
0.0
 10
5.420922
 20
98.111925
 30
0.0
  0
SPLINE
  5
1e0
100
AcDbEntity
  8
Waterline10
 62
5
100
AcDbSpline
 70
8
 71
3
 72
8
 73
4
 74
0
 40
0
 40
0
 40
0
 40
0
 40
1
 40
1
 40
1
 40
1
 10
932.488650
 20
98.161747
 30
0.0
 10
931.714650
 20
90.871605
 30
0.0
 10
927.547050
 20
88.753965
 30
0.0
 10
920.383125
 20
85.514482
 30
0.0
  0
SPLINE
  5
1e1
100
AcDbEntity
  8
Waterline10
 62
5
100
AcDbSpline
 70
8
 71
3
 72
8
 73
4
 74
0
 40
0
 40
0
 40
0
 40
0
 40
1
 40
1
 40
1
 40
1
 10
920.383125
 20
85.514482
 30
0.0
 10
913.956225
 20
82.338922
 30
0.0
 10
881.655150
 20
67.169520
 30
0.0
 10
869.425200
 20
62.413477
 30
0.0
  0
SPLINE
  5
1e2
100
AcDbEntity
  8
Waterline10
 62
5
100
AcDbSpline
 70
8
 71
3
 72
8
 73
4
 74
0
 40
0
 40
0
 40
0
 40
0
 40
1
 40
1
 40
1
 40
1
 10
869.425200
 20
62.413477
 30
0.0
 10
857.195325
 20
57.657435
 30
0.0
 10
814.164225
 20
42.030352
 30
0.0
 10
801.028425
 20
38.406630
 30
0.0
  0
SPLINE
  5
1e3
100
AcDbEntity
  8
Waterline10
 62
5
100
AcDbSpline
 70
8
 71
3
 72
8
 73
4
 74
0
 40
0
 40
0
 40
0
 40
0
 40
1
 40
1
 40
1
 40
1
 10
801.028425
 20
38.406630
 30
0.0
 10
787.892550
 20
34.782915
 30
0.0
 10
753.241050
 20
26.629635
 30
0.0
 10
741.237720
 20
25.270830
 30
0.0
  0
SPLINE
  5
1e4
100
AcDbEntity
  8
Waterline10
 62
5
100
AcDbSpline
 70
8
 71
3
 72
8
 73
4
 74
0
 40
0
 40
0
 40
0
 40
0
 40
1
 40
1
 40
1
 40
1
 10
741.237720
 20
25.270830
 30
0.0
 10
729.234232
 20
23.911875
 30
0.0
 10
705.906855
 20
22.326570
 30
0.0
 10
678.955770
 20
22.326570
 30
0.0
  0
SPLINE
  5
1e5
100
AcDbEntity
  8
Waterline10
 62
5
100
AcDbSpline
 70
8
 71
3
 72
8
 73
4
 74
0
 40
0
 40
0
 40
0
 40
0
 40
1
 40
1
 40
1
 40
1
 10
678.955770
 20
22.326570
 30
0.0
 10
652.004677
 20
22.326570
 30
0.0
 10
484.183133
 20
21.873592
 30
0.0
 10
422.354175
 20
22.779555
 30
0.0
  0
SPLINE
  5
1e6
100
AcDbEntity
  8
Waterline10
 62
5
100
AcDbSpline
 70
8
 71
3
 72
8
 73
4
 74
0
 40
0
 40
0
 40
0
 40
0
 40
1
 40
1
 40
1
 40
1
 10
422.354175
 20
22.779555
 30
0.0
 10
360.525195
 20
23.685390
 30
0.0
 10
240.037995
 20
27.309105
 30
0.0
 10
213.539737
 20
28.668052
 30
0.0
  0
SPLINE
  5
1e7
100
AcDbEntity
  8
Waterline10
 62
5
100
AcDbSpline
 70
8
 71
3
 72
8
 73
4
 74
0
 40
0
 40
0
 40
0
 40
0
 40
1
 40
1
 40
1
 40
1
 10
213.539737
 20
28.668052
 30
0.0
 10
187.041623
 20
30.026872
 30
0.0
 10
5.420915
 20
40.776533
 30
0.0
 10
5.420915
 20
40.776533
 30
0.0
  0
LWPOLYLINE
  5
1e8
100
AcDbEntity
  8
Waterline10
 62
5
100
AcDbPolyline
 90
2
 70
0
 10
5.420922
 20
155.546963
 30
0.0
 10
5.420922
 20
98.221552
 30
0.0
  0
LWPOLYLINE
  5
1e9
100
AcDbEntity
  8
Waterline10
 62
5
100
AcDbPolyline
 90
2
 70
0
 10
5.420915
 20
40.776533
 30
0.0
 10
5.420922
 20
98.221552
 30
0.0
  0
ENDSEC
  0
SECTION
  2
OBJECTS
  0
DICTIONARY
  5
C
330
0
100
AcDbDictionary
  3
ACAD_GROUP
350
D
  3
ACAD_MLINESTYLE
350
17
  0
DICTIONARY
  5
D
330
C
100
AcDbDictionary
  0
DICTIONARY
  5
1A
330
C
100
AcDbDictionary
  0
DICTIONARY
  5
17
330
C
100
AcDbDictionary
  3
STANDARD
350
18
  0
DICTIONARY
  5
19
330
C
100
AcDbDictionary
  0
ENDSEC
  0
EOF
